<svg width="163" height="101" viewBox="0 0 163 101" fill="none" xmlns="http://www.w3.org/2000/svg">
<path fill-rule="evenodd" clip-rule="evenodd" d="M125.904 20.1378C124.242 20.1418 122.583 20.2639 120.939 20.503C116.301 14.1505 110.229 8.98259 103.216 5.41978C96.2024 1.85697 88.4467 0 80.5799 0C72.7131 0 64.9575 1.85697 57.9443 5.41978C50.931 8.98259 44.8584 14.1505 40.2207 20.503C34.8974 19.7441 29.471 20.2128 24.3568 21.8734C19.2427 23.534 14.5764 26.3425 10.7153 30.0837C6.85414 33.825 3.90047 38.3998 2.0804 43.4581C0.26033 48.5163 -0.377881 53.9238 0.214624 59.2667C0.80713 64.6095 2.61464 69.7459 5.49878 74.2828C8.38293 78.8197 12.2672 82.6367 16.8543 85.4416C21.4414 88.2465 26.6097 89.9649 31.9635 90.4654C37.3173 90.9658 42.7146 90.2349 47.7424 88.3288C56.816 96.3063 68.4857 100.706 80.5692 100.706C92.6527 100.706 104.322 96.3063 113.396 88.3288C117.389 89.8548 121.629 90.634 125.904 90.6276C130.607 90.7437 135.285 89.9179 139.664 88.1988C144.043 86.4798 148.034 83.9023 151.401 80.618C154.769 77.3337 157.445 73.4091 159.272 69.0752C161.099 64.7413 162.04 60.0858 162.04 55.3827C162.04 50.6796 161.099 46.0241 159.272 41.6902C157.445 37.3563 154.769 33.4317 151.401 30.1474C148.034 26.8631 144.043 24.2856 139.664 22.5665C135.285 20.8475 130.607 20.0217 125.904 20.1378ZM125.904 80.5729C120.721 80.5642 115.668 78.9505 111.44 75.9538C107.71 80.5386 103.005 84.2346 97.6668 86.7731C92.3285 89.3115 86.4914 90.6287 80.5799 90.6287C74.6685 90.6287 68.8314 89.3115 63.4931 86.7731C58.1548 84.2346 53.4495 80.5386 49.7195 75.9538C46.4838 78.2276 42.7575 79.707 38.843 80.2719C34.9284 80.8368 30.9358 80.4713 27.1889 79.2052C23.4421 77.939 20.0465 75.8078 17.2776 72.9844C14.5088 70.161 12.4446 66.7249 11.2524 62.9548C10.0603 59.1847 9.77388 55.1868 10.4163 51.2854C11.0588 47.3839 12.612 43.6888 14.9501 40.4997C17.2882 37.3106 20.3453 34.7173 23.8734 32.9302C27.4014 31.1431 31.3012 30.2125 35.2563 30.2139C38.5392 30.2128 41.7897 30.8627 44.8196 32.126C48.1457 25.4963 53.2508 19.9222 59.5641 16.0269C65.8775 12.1315 73.1502 10.0685 80.5692 10.0685C87.9882 10.0685 95.2609 12.1315 101.574 16.0269C107.888 19.9222 112.993 25.4963 116.319 32.126C119.761 30.7024 123.477 30.0599 127.198 30.245C130.919 30.4301 134.552 31.4381 137.837 33.1964C141.121 34.9547 143.974 37.4194 146.191 40.4129C148.407 43.4065 149.932 46.8544 150.655 50.508C151.377 54.1617 151.281 57.9301 150.371 61.5418C149.461 65.1535 147.761 68.5185 145.394 71.3942C143.026 74.27 140.05 76.5849 136.68 78.1721C133.31 79.7593 129.629 80.5793 125.904 80.5729Z" fill="#52C4D1" fill-opacity="0.51"/>
<path d="M80.5254 31.916V68.0827" stroke="#52C4D1" stroke-width="5.16667" stroke-linecap="round" stroke-linejoin="round"/>
<path d="M62.4434 50H98.61" stroke="#52C4D1" stroke-width="5.16667" stroke-linecap="round" stroke-linejoin="round"/>
</svg>
