<svg width="164" height="101" viewBox="0 0 164 101" fill="none" xmlns="http://www.w3.org/2000/svg">
<path fill-rule="evenodd" clip-rule="evenodd" d="M126.884 20.2843C125.223 20.2883 123.564 20.4104 121.92 20.6495C117.282 14.297 111.209 9.12908 104.196 5.56627C97.1829 2.00346 89.4272 0.146484 81.5604 0.146484C73.6936 0.146484 65.938 2.00346 58.9247 5.56627C51.9115 9.12908 45.8389 14.297 41.2011 20.6495C35.8778 19.8905 30.4514 20.3593 25.3373 22.0199C20.2232 23.6805 15.5569 26.489 11.6958 30.2302C7.8346 33.9714 4.88094 38.5463 3.06087 43.6046C1.2408 48.6628 0.602588 54.0703 1.19509 59.4131C1.7876 64.756 3.59511 69.8924 6.47925 74.4293C9.3634 78.9662 13.2477 82.7832 17.8348 85.5881C22.4219 88.393 27.5902 90.1114 32.944 90.6118C38.2978 91.1123 43.6951 90.3814 48.7228 88.4752C57.7965 96.4528 69.4662 100.853 81.5497 100.853C93.6331 100.853 105.303 96.4528 114.377 88.4752C118.37 90.0013 122.609 90.7805 126.884 90.774C131.587 90.8901 136.266 90.0644 140.645 88.3453C145.024 86.6263 149.014 84.0487 152.382 80.7645C155.749 77.4802 158.425 73.5556 160.252 69.2217C162.079 64.8878 163.021 60.2322 163.021 55.5292C163.021 50.8261 162.079 46.1705 160.252 41.8367C158.425 37.5028 155.749 33.5781 152.382 30.2939C149.014 27.0096 145.024 24.432 140.645 22.713C136.266 20.994 131.587 20.1682 126.884 20.2843ZM126.884 80.7194C121.701 80.7107 116.649 79.097 112.421 76.1003C108.691 80.685 103.986 84.3811 98.6473 86.9195C93.309 89.458 87.4719 90.7752 81.5604 90.7752C75.649 90.7752 69.8118 89.458 64.4735 86.9195C59.1352 84.3811 54.43 80.685 50.7 76.1003C47.4643 78.3741 43.738 79.8535 39.8235 80.4184C35.9089 80.9833 31.9163 80.6178 28.1694 79.3517C24.4226 78.0855 21.027 75.9543 18.2581 73.1309C15.4892 70.3075 13.425 66.8714 12.2329 63.1013C11.0408 59.3312 10.7544 55.3333 11.3968 51.4319C12.0393 47.5304 13.5925 43.8353 15.9306 40.6462C18.2687 37.4571 21.3257 34.8638 24.8538 33.0767C28.3819 31.2896 32.2817 30.359 36.2368 30.3604C39.5197 30.3592 42.7702 31.0092 45.8001 32.2725C49.1262 25.6428 54.2313 20.0687 60.5446 16.1734C66.858 12.278 74.1307 10.215 81.5497 10.215C88.9686 10.215 96.2414 12.278 102.555 16.1734C108.868 20.0687 113.973 25.6428 117.299 32.2725C120.742 30.8488 124.458 30.2064 128.178 30.3915C131.899 30.5766 135.533 31.5846 138.817 33.3429C142.101 35.1011 144.955 37.5659 147.171 40.5594C149.388 43.553 150.912 47.0008 151.635 50.6545C152.358 54.3082 152.261 58.0766 151.351 61.6883C150.442 65.3 148.742 68.665 146.374 71.5407C144.007 74.4165 141.031 76.7313 137.66 78.3185C134.29 79.9058 130.61 80.7257 126.884 80.7194Z" fill="#52C4D1" fill-opacity="0.51"/>
<path d="M81.4805 54.7715C83.7586 54.7715 85.6055 52.9247 85.6055 50.6465C85.6055 48.3683 83.7586 46.5215 81.4805 46.5215C79.2023 46.5215 77.3555 48.3683 77.3555 50.6465C77.3555 52.9247 79.2023 54.7715 81.4805 54.7715Z" stroke="#52C4D1" stroke-width="8.25" stroke-linecap="round" stroke-linejoin="round"/>
<path d="M110.355 54.7715C112.634 54.7715 114.48 52.9247 114.48 50.6465C114.48 48.3683 112.634 46.5215 110.355 46.5215C108.077 46.5215 106.23 48.3683 106.23 50.6465C106.23 52.9247 108.077 54.7715 110.355 54.7715Z" stroke="#52C4D1" stroke-width="8.25" stroke-linecap="round" stroke-linejoin="round"/>
<path d="M52.6055 54.7715C54.8836 54.7715 56.7305 52.9247 56.7305 50.6465C56.7305 48.3683 54.8836 46.5215 52.6055 46.5215C50.3273 46.5215 48.4805 48.3683 48.4805 50.6465C48.4805 52.9247 50.3273 54.7715 52.6055 54.7715Z" stroke="#52C4D1" stroke-width="8.25" stroke-linecap="round" stroke-linejoin="round"/>
</svg>
