<svg width="80" height="80" viewBox="0 0 80 80" fill="none" xmlns="http://www.w3.org/2000/svg">
<path d="M23.1519 64.0014H56.8217C59.2638 64.0014 61.1961 66.3601 61.2297 69.2942L61.2714 73.0555H18.727L18.7439 69.2942C19.1863 66.0876 21.3606 64.0014 23.1519 64.0014Z" fill="white"/>
<path d="M40.0746 21.32C38.9429 21.32 37.808 21.7448 37.2606 22.6055L29.3174 37.862L16.2562 25.3353C15.6462 24.8344 14.824 24.626 13.9969 24.6637C12.62 24.7254 11.2334 25.4611 10.8215 26.6417L19.0316 56.806C19.9204 58.1212 19.9749 59.9493 22.8545 59.9493H57.168C60.0476 59.9493 60.0524 58.1957 60.9917 56.806L69.1986 26.6417C68.789 25.4611 67.4033 24.7254 66.0256 24.6637C65.1985 24.6268 64.3762 24.8344 63.7679 25.3353L50.7892 37.7995L42.8836 22.6055C42.3363 21.7448 41.2054 21.32 40.0746 21.32Z" fill="white"/>
<path d="M11.2342 22.1671C13.6019 22.1671 15.5212 20.143 15.5212 17.6461C15.5212 15.1493 13.6019 13.1251 11.2342 13.1251C8.86661 13.1251 6.94727 15.1493 6.94727 17.6461C6.94727 20.143 8.86661 22.1671 11.2342 22.1671Z" fill="white"/>
<path d="M40.0112 17.5123C42.7799 17.5123 45.0243 15.1466 45.0243 12.2283C45.0243 9.31006 42.7799 6.94434 40.0112 6.94434C37.2426 6.94434 34.9981 9.31006 34.9981 12.2283C34.9981 15.1466 37.2426 17.5123 40.0112 17.5123Z" fill="white"/>
<path d="M73.0512 17.6461C73.0512 20.1419 71.1309 22.1671 68.7634 22.1671C66.3935 22.1671 64.4772 20.1419 64.4772 17.6461C64.4772 15.1496 66.3935 13.1259 68.7634 13.1259C71.1309 13.1251 73.0512 15.1496 73.0512 17.6461Z" fill="white"/>
</svg>
