<svg width="90" height="90" viewBox="0 0 32 25" fill="none" xmlns="http://www.w3.org/2000/svg">
<path d="M5.3125 21.0273H18.0508C21.543 21.0273 24.2383 18.3906 24.2383 14.9922C24.2383 14.9453 24.2383 14.8984 24.2383 14.8633C28.0352 14.7812 30.5312 12.625 31.457 10.1523C31.8672 9.10938 31.3398 8.20703 30.3438 8.20703C29.5703 8.20703 28.9609 8.53516 27.707 8.53516C24.8125 8.53516 23.3125 6.92969 23.3125 4.22266C23.3125 2.86328 23.7344 2.08984 23.7344 1.43359C23.7344 0.402344 22.8203 -0.101562 21.7422 0.261719C19.1289 1.12891 16.9727 3.87109 16.9727 7.15234C16.9727 7.26953 16.9727 7.38672 16.9727 7.50391C15.543 5.81641 13.5156 4.84375 11.1602 4.84375C7.22266 4.84375 3.94141 7.82031 3.48438 11.7344C1.49219 12.3555 0.15625 14.1016 0.15625 16.2812C0.15625 19.0469 2.24219 21.0273 5.3125 21.0273ZM18.8945 7.11719C18.8945 4.92578 20.1602 3.17969 21.6836 2.3125L21.8125 2.39453C21.625 2.96875 21.4492 3.76562 21.4492 4.67969C21.4492 8.03125 23.8516 10.375 27.2617 10.375C28.1172 10.375 28.8555 10.2227 29.3828 10.0469L29.4648 10.1406C28.7148 11.5352 26.8281 12.9531 23.875 12.918C23.1602 10.9609 21.4258 9.51953 19.2227 9.10938C19 8.47656 18.8945 7.80859 18.8945 7.11719ZM5.30078 18.8359C3.36719 18.8359 2.34766 17.7461 2.34766 16.3281C2.34766 15.1094 3.07422 14.0664 4.77344 13.6094C5.35938 13.457 5.55859 13.1875 5.62891 12.5781C5.95703 9.26172 8.30078 7.03516 11.1602 7.03516C13.3633 7.03516 15.0977 8.26562 16.1992 10.4336C16.4688 10.9375 16.7617 11.125 17.3828 11.125C20.418 11.125 22.0469 12.8945 22.0469 15.0391C22.0469 17.1602 20.3477 18.8359 18.0625 18.8359H5.30078Z" fill="white"/>
</svg>
