<svg width="375" height="368" viewBox="0 0 375 368" fill="none" xmlns="http://www.w3.org/2000/svg">
<path d="M124.757 134V122.1H127.035L134.056 130.668H132.951V122.1H135.671V134H133.41L126.372 125.432H127.477V134H124.757ZM142.331 134.136C141.357 134.136 140.49 133.932 139.73 133.524C138.982 133.116 138.387 132.561 137.945 131.858C137.515 131.144 137.299 130.334 137.299 129.427C137.299 128.509 137.515 127.699 137.945 126.996C138.387 126.282 138.982 125.727 139.73 125.33C140.49 124.922 141.357 124.718 142.331 124.718C143.295 124.718 144.156 124.922 144.915 125.33C145.675 125.727 146.27 126.276 146.7 126.979C147.131 127.682 147.346 128.498 147.346 129.427C147.346 130.334 147.131 131.144 146.7 131.858C146.27 132.561 145.675 133.116 144.915 133.524C144.156 133.932 143.295 134.136 142.331 134.136ZM142.331 131.96C142.773 131.96 143.17 131.858 143.521 131.654C143.873 131.45 144.15 131.161 144.354 130.787C144.558 130.402 144.66 129.948 144.66 129.427C144.66 128.894 144.558 128.441 144.354 128.067C144.15 127.693 143.873 127.404 143.521 127.2C143.17 126.996 142.773 126.894 142.331 126.894C141.889 126.894 141.493 126.996 141.141 127.2C140.79 127.404 140.507 127.693 140.291 128.067C140.087 128.441 139.985 128.894 139.985 129.427C139.985 129.948 140.087 130.402 140.291 130.787C140.507 131.161 140.79 131.45 141.141 131.654C141.493 131.858 141.889 131.96 142.331 131.96ZM153.48 134V122.1H158.886C160.178 122.1 161.317 122.349 162.303 122.848C163.289 123.335 164.06 124.021 164.615 124.905C165.171 125.789 165.448 126.837 165.448 128.05C165.448 129.251 165.171 130.3 164.615 131.195C164.06 132.079 163.289 132.77 162.303 133.269C161.317 133.756 160.178 134 158.886 134H153.48ZM156.234 131.739H158.75C159.544 131.739 160.229 131.592 160.807 131.297C161.397 130.991 161.85 130.56 162.167 130.005C162.496 129.45 162.66 128.798 162.66 128.05C162.66 127.291 162.496 126.639 162.167 126.095C161.85 125.54 161.397 125.115 160.807 124.82C160.229 124.514 159.544 124.361 158.75 124.361H156.234V131.739ZM167.018 134V124.854H169.551V127.438L169.194 126.69C169.466 126.044 169.903 125.557 170.503 125.228C171.104 124.888 171.835 124.718 172.696 124.718V127.166C172.583 127.155 172.481 127.149 172.39 127.149C172.3 127.138 172.203 127.132 172.101 127.132C171.376 127.132 170.787 127.342 170.333 127.761C169.891 128.169 169.67 128.809 169.67 129.682V134H167.018ZM178.426 134.136C177.383 134.136 176.465 133.932 175.672 133.524C174.89 133.116 174.283 132.561 173.853 131.858C173.422 131.144 173.207 130.334 173.207 129.427C173.207 128.509 173.416 127.699 173.836 126.996C174.266 126.282 174.85 125.727 175.587 125.33C176.323 124.922 177.156 124.718 178.086 124.718C178.981 124.718 179.786 124.911 180.5 125.296C181.225 125.67 181.797 126.214 182.217 126.928C182.636 127.631 182.846 128.475 182.846 129.461C182.846 129.563 182.84 129.682 182.829 129.818C182.817 129.943 182.806 130.062 182.795 130.175H175.366V128.628H181.401L180.381 129.087C180.381 128.611 180.284 128.197 180.092 127.846C179.899 127.495 179.633 127.223 179.293 127.03C178.953 126.826 178.556 126.724 178.103 126.724C177.649 126.724 177.247 126.826 176.896 127.03C176.556 127.223 176.289 127.5 176.097 127.863C175.904 128.214 175.808 128.634 175.808 129.121V129.529C175.808 130.028 175.915 130.47 176.131 130.855C176.357 131.229 176.669 131.518 177.066 131.722C177.474 131.915 177.95 132.011 178.494 132.011C178.981 132.011 179.406 131.937 179.769 131.79C180.143 131.643 180.483 131.422 180.789 131.127L182.2 132.657C181.78 133.133 181.253 133.501 180.619 133.762C179.984 134.011 179.253 134.136 178.426 134.136ZM189.652 134V132.215L189.482 131.824V128.628C189.482 128.061 189.307 127.619 188.955 127.302C188.615 126.985 188.088 126.826 187.374 126.826C186.887 126.826 186.405 126.905 185.929 127.064C185.465 127.211 185.068 127.415 184.739 127.676L183.787 125.823C184.286 125.472 184.887 125.2 185.589 125.007C186.292 124.814 187.006 124.718 187.731 124.718C189.125 124.718 190.208 125.047 190.978 125.704C191.749 126.361 192.134 127.387 192.134 128.781V134H189.652ZM186.864 134.136C186.15 134.136 185.538 134.017 185.028 133.779C184.518 133.53 184.127 133.195 183.855 132.776C183.583 132.357 183.447 131.886 183.447 131.365C183.447 130.821 183.578 130.345 183.838 129.937C184.11 129.529 184.535 129.212 185.113 128.985C185.691 128.747 186.445 128.628 187.374 128.628H189.805V130.175H187.663C187.04 130.175 186.609 130.277 186.371 130.481C186.145 130.685 186.031 130.94 186.031 131.246C186.031 131.586 186.162 131.858 186.422 132.062C186.694 132.255 187.063 132.351 187.527 132.351C187.969 132.351 188.366 132.249 188.717 132.045C189.069 131.83 189.324 131.518 189.482 131.11L189.89 132.334C189.698 132.923 189.346 133.371 188.836 133.677C188.326 133.983 187.669 134.136 186.864 134.136ZM205.928 124.718C206.653 124.718 207.293 124.865 207.849 125.16C208.415 125.443 208.857 125.885 209.175 126.486C209.503 127.075 209.668 127.835 209.668 128.764V134H207.016V129.172C207.016 128.435 206.863 127.891 206.557 127.54C206.251 127.189 205.82 127.013 205.265 127.013C204.879 127.013 204.534 127.104 204.228 127.285C203.922 127.455 203.684 127.716 203.514 128.067C203.344 128.418 203.259 128.866 203.259 129.41V134H200.607V129.172C200.607 128.435 200.454 127.891 200.148 127.54C199.853 127.189 199.428 127.013 198.873 127.013C198.487 127.013 198.142 127.104 197.836 127.285C197.53 127.455 197.292 127.716 197.122 128.067C196.952 128.418 196.867 128.866 196.867 129.41V134H194.215V124.854H196.748V127.353L196.272 126.622C196.589 125.999 197.037 125.528 197.615 125.211C198.204 124.882 198.873 124.718 199.621 124.718C200.459 124.718 201.19 124.933 201.814 125.364C202.448 125.783 202.868 126.429 203.072 127.302L202.137 127.047C202.443 126.333 202.93 125.766 203.599 125.347C204.279 124.928 205.055 124.718 205.928 124.718ZM214.802 134.136C214.02 134.136 213.266 134.045 212.541 133.864C211.827 133.671 211.26 133.433 210.841 133.15L211.725 131.246C212.144 131.507 212.637 131.722 213.204 131.892C213.782 132.051 214.348 132.13 214.904 132.13C215.516 132.13 215.946 132.056 216.196 131.909C216.456 131.762 216.587 131.558 216.587 131.297C216.587 131.082 216.485 130.923 216.281 130.821C216.088 130.708 215.827 130.623 215.499 130.566C215.17 130.509 214.807 130.453 214.411 130.396C214.025 130.339 213.634 130.266 213.238 130.175C212.841 130.073 212.478 129.926 212.15 129.733C211.821 129.54 211.555 129.28 211.351 128.951C211.158 128.622 211.062 128.197 211.062 127.676C211.062 127.098 211.226 126.588 211.555 126.146C211.895 125.704 212.382 125.358 213.017 125.109C213.651 124.848 214.411 124.718 215.295 124.718C215.918 124.718 216.553 124.786 217.199 124.922C217.845 125.058 218.383 125.256 218.814 125.517L217.93 127.404C217.488 127.143 217.04 126.968 216.587 126.877C216.145 126.775 215.714 126.724 215.295 126.724C214.705 126.724 214.275 126.803 214.003 126.962C213.731 127.121 213.595 127.325 213.595 127.574C213.595 127.801 213.691 127.971 213.884 128.084C214.088 128.197 214.354 128.288 214.683 128.356C215.011 128.424 215.368 128.486 215.754 128.543C216.15 128.588 216.547 128.662 216.944 128.764C217.34 128.866 217.697 129.013 218.015 129.206C218.343 129.387 218.61 129.642 218.814 129.971C219.018 130.288 219.12 130.708 219.12 131.229C219.12 131.796 218.95 132.3 218.61 132.742C218.27 133.173 217.777 133.513 217.131 133.762C216.496 134.011 215.72 134.136 214.802 134.136ZM228.075 134V129.138L228.704 130.804L223.468 122.1H226.392L230.404 128.781H228.721L232.75 122.1H235.453L230.217 130.804L230.829 129.138V134H228.075ZM239.625 134.136C238.582 134.136 237.664 133.932 236.871 133.524C236.089 133.116 235.483 132.561 235.052 131.858C234.621 131.144 234.406 130.334 234.406 129.427C234.406 128.509 234.616 127.699 235.035 126.996C235.466 126.282 236.049 125.727 236.786 125.33C237.523 124.922 238.356 124.718 239.285 124.718C240.18 124.718 240.985 124.911 241.699 125.296C242.424 125.67 242.997 126.214 243.416 126.928C243.835 127.631 244.045 128.475 244.045 129.461C244.045 129.563 244.039 129.682 244.028 129.818C244.017 129.943 244.005 130.062 243.994 130.175H236.565V128.628H242.6L241.58 129.087C241.58 128.611 241.484 128.197 241.291 127.846C241.098 127.495 240.832 127.223 240.492 127.03C240.152 126.826 239.755 126.724 239.302 126.724C238.849 126.724 238.446 126.826 238.095 127.03C237.755 127.223 237.489 127.5 237.296 127.863C237.103 128.214 237.007 128.634 237.007 129.121V129.529C237.007 130.028 237.115 130.47 237.33 130.855C237.557 131.229 237.868 131.518 238.265 131.722C238.673 131.915 239.149 132.011 239.693 132.011C240.18 132.011 240.605 131.937 240.968 131.79C241.342 131.643 241.682 131.422 241.988 131.127L243.399 132.657C242.98 133.133 242.453 133.501 241.818 133.762C241.183 134.011 240.452 134.136 239.625 134.136ZM249.231 134.136C248.154 134.136 247.315 133.864 246.715 133.32C246.114 132.765 245.814 131.943 245.814 130.855V122.831H248.466V130.821C248.466 131.206 248.568 131.507 248.772 131.722C248.976 131.926 249.253 132.028 249.605 132.028C250.024 132.028 250.381 131.915 250.676 131.688L251.39 133.558C251.118 133.751 250.789 133.898 250.404 134C250.03 134.091 249.639 134.136 249.231 134.136ZM244.403 127.098V125.058H250.744V127.098H244.403Z" fill="#BDBDBD"/>
<path d="M105.765 164L111.069 152.1H113.789L119.11 164H116.22L111.868 153.494H112.956L108.587 164H105.765ZM108.417 161.45L109.148 159.359H115.268L116.016 161.45H108.417ZM123.594 164.136C122.732 164.136 121.956 163.943 121.265 163.558C120.573 163.161 120.024 162.612 119.616 161.909C119.219 161.206 119.021 160.379 119.021 159.427C119.021 158.464 119.219 157.631 119.616 156.928C120.024 156.225 120.573 155.681 121.265 155.296C121.956 154.911 122.732 154.718 123.594 154.718C124.364 154.718 125.039 154.888 125.617 155.228C126.195 155.568 126.642 156.084 126.96 156.775C127.277 157.466 127.436 158.35 127.436 159.427C127.436 160.492 127.283 161.376 126.977 162.079C126.671 162.77 126.229 163.286 125.651 163.626C125.084 163.966 124.398 164.136 123.594 164.136ZM124.053 161.96C124.483 161.96 124.874 161.858 125.226 161.654C125.577 161.45 125.855 161.161 126.059 160.787C126.274 160.402 126.382 159.948 126.382 159.427C126.382 158.894 126.274 158.441 126.059 158.067C125.855 157.693 125.577 157.404 125.226 157.2C124.874 156.996 124.483 156.894 124.053 156.894C123.611 156.894 123.214 156.996 122.863 157.2C122.511 157.404 122.228 157.693 122.013 158.067C121.809 158.441 121.707 158.894 121.707 159.427C121.707 159.948 121.809 160.402 122.013 160.787C122.228 161.161 122.511 161.45 122.863 161.654C123.214 161.858 123.611 161.96 124.053 161.96ZM126.45 164V162.13L126.501 159.41L126.331 156.707V151.386H128.983V164H126.45ZM134.956 164.136C134.095 164.136 133.319 163.943 132.627 163.558C131.936 163.161 131.386 162.612 130.978 161.909C130.582 161.206 130.383 160.379 130.383 159.427C130.383 158.464 130.582 157.631 130.978 156.928C131.386 156.225 131.936 155.681 132.627 155.296C133.319 154.911 134.095 154.718 134.956 154.718C135.727 154.718 136.401 154.888 136.979 155.228C137.557 155.568 138.005 156.084 138.322 156.775C138.64 157.466 138.798 158.35 138.798 159.427C138.798 160.492 138.645 161.376 138.339 162.079C138.033 162.77 137.591 163.286 137.013 163.626C136.447 163.966 135.761 164.136 134.956 164.136ZM135.415 161.96C135.846 161.96 136.237 161.858 136.588 161.654C136.94 161.45 137.217 161.161 137.421 160.787C137.637 160.402 137.744 159.948 137.744 159.427C137.744 158.894 137.637 158.441 137.421 158.067C137.217 157.693 136.94 157.404 136.588 157.2C136.237 156.996 135.846 156.894 135.415 156.894C134.973 156.894 134.577 156.996 134.225 157.2C133.874 157.404 133.591 157.693 133.375 158.067C133.171 158.441 133.069 158.894 133.069 159.427C133.069 159.948 133.171 160.402 133.375 160.787C133.591 161.161 133.874 161.45 134.225 161.654C134.577 161.858 134.973 161.96 135.415 161.96ZM137.812 164V162.13L137.863 159.41L137.693 156.707V151.386H140.345V164H137.812ZM147.954 167.434C147.478 167.434 147.008 167.36 146.543 167.213C146.079 167.066 145.699 166.862 145.404 166.601L146.373 164.714C146.577 164.895 146.81 165.037 147.07 165.139C147.342 165.241 147.609 165.292 147.869 165.292C148.243 165.292 148.538 165.201 148.753 165.02C148.98 164.85 149.184 164.561 149.365 164.153L149.841 163.031L150.045 162.742L153.326 154.854H155.876L151.745 164.561C151.451 165.298 151.111 165.876 150.725 166.295C150.351 166.714 149.932 167.009 149.467 167.179C149.014 167.349 148.51 167.434 147.954 167.434ZM149.518 164.357L145.438 154.854H148.175L151.337 162.504L149.518 164.357ZM160.653 164.136C159.679 164.136 158.812 163.932 158.052 163.524C157.304 163.116 156.709 162.561 156.267 161.858C155.837 161.144 155.621 160.334 155.621 159.427C155.621 158.509 155.837 157.699 156.267 156.996C156.709 156.282 157.304 155.727 158.052 155.33C158.812 154.922 159.679 154.718 160.653 154.718C161.617 154.718 162.478 154.922 163.237 155.33C163.997 155.727 164.592 156.276 165.022 156.979C165.453 157.682 165.668 158.498 165.668 159.427C165.668 160.334 165.453 161.144 165.022 161.858C164.592 162.561 163.997 163.116 163.237 163.524C162.478 163.932 161.617 164.136 160.653 164.136ZM160.653 161.96C161.095 161.96 161.492 161.858 161.843 161.654C162.195 161.45 162.472 161.161 162.676 160.787C162.88 160.402 162.982 159.948 162.982 159.427C162.982 158.894 162.88 158.441 162.676 158.067C162.472 157.693 162.195 157.404 161.843 157.2C161.492 156.996 161.095 156.894 160.653 156.894C160.211 156.894 159.815 156.996 159.463 157.2C159.112 157.404 158.829 157.693 158.613 158.067C158.409 158.441 158.307 158.894 158.307 159.427C158.307 159.948 158.409 160.402 158.613 160.787C158.829 161.161 159.112 161.45 159.463 161.654C159.815 161.858 160.211 161.96 160.653 161.96ZM170.892 164.136C170.133 164.136 169.453 163.989 168.852 163.694C168.263 163.399 167.804 162.952 167.475 162.351C167.146 161.739 166.982 160.963 166.982 160.022V154.854H169.634V159.631C169.634 160.39 169.793 160.951 170.11 161.314C170.439 161.665 170.898 161.841 171.487 161.841C171.895 161.841 172.258 161.756 172.575 161.586C172.892 161.405 173.142 161.133 173.323 160.77C173.504 160.396 173.595 159.931 173.595 159.376V154.854H176.247V164H173.731V161.484L174.19 162.215C173.884 162.85 173.431 163.331 172.83 163.66C172.241 163.977 171.595 164.136 170.892 164.136ZM178.296 164V154.854H180.829V157.438L180.472 156.69C180.744 156.044 181.18 155.557 181.781 155.228C182.382 154.888 183.113 154.718 183.974 154.718V157.166C183.861 157.155 183.759 157.149 183.668 157.149C183.577 157.138 183.481 157.132 183.379 157.132C182.654 157.132 182.064 157.342 181.611 157.761C181.169 158.169 180.948 158.809 180.948 159.682V164H178.296ZM189.939 164V154.65C189.939 153.619 190.245 152.797 190.857 152.185C191.469 151.562 192.341 151.25 193.475 151.25C193.86 151.25 194.228 151.29 194.58 151.369C194.942 151.448 195.248 151.573 195.498 151.743L194.801 153.664C194.653 153.562 194.489 153.483 194.308 153.426C194.126 153.369 193.934 153.341 193.73 153.341C193.344 153.341 193.044 153.454 192.829 153.681C192.625 153.896 192.523 154.225 192.523 154.667V155.517L192.591 156.656V164H189.939ZM188.528 157.098V155.058H194.869V157.098H188.528ZM196.365 164V154.854H199.017V164H196.365ZM197.691 153.579C197.203 153.579 196.807 153.437 196.501 153.154C196.195 152.871 196.042 152.519 196.042 152.1C196.042 151.681 196.195 151.329 196.501 151.046C196.807 150.763 197.203 150.621 197.691 150.621C198.178 150.621 198.575 150.757 198.881 151.029C199.187 151.29 199.34 151.63 199.34 152.049C199.34 152.491 199.187 152.859 198.881 153.154C198.586 153.437 198.189 153.579 197.691 153.579ZM201.061 164V154.854H203.594V157.438L203.237 156.69C203.509 156.044 203.946 155.557 204.546 155.228C205.147 154.888 205.878 154.718 206.739 154.718V157.166C206.626 157.155 206.524 157.149 206.433 157.149C206.343 157.138 206.246 157.132 206.144 157.132C205.419 157.132 204.83 157.342 204.376 157.761C203.934 158.169 203.713 158.809 203.713 159.682V164H201.061ZM211.052 164.136C210.27 164.136 209.516 164.045 208.791 163.864C208.077 163.671 207.51 163.433 207.091 163.15L207.975 161.246C208.394 161.507 208.887 161.722 209.454 161.892C210.032 162.051 210.598 162.13 211.154 162.13C211.766 162.13 212.196 162.056 212.446 161.909C212.706 161.762 212.837 161.558 212.837 161.297C212.837 161.082 212.735 160.923 212.531 160.821C212.338 160.708 212.077 160.623 211.749 160.566C211.42 160.509 211.057 160.453 210.661 160.396C210.275 160.339 209.884 160.266 209.488 160.175C209.091 160.073 208.728 159.926 208.4 159.733C208.071 159.54 207.805 159.28 207.601 158.951C207.408 158.622 207.312 158.197 207.312 157.676C207.312 157.098 207.476 156.588 207.805 156.146C208.145 155.704 208.632 155.358 209.267 155.109C209.901 154.848 210.661 154.718 211.545 154.718C212.168 154.718 212.803 154.786 213.449 154.922C214.095 155.058 214.633 155.256 215.064 155.517L214.18 157.404C213.738 157.143 213.29 156.968 212.837 156.877C212.395 156.775 211.964 156.724 211.545 156.724C210.955 156.724 210.525 156.803 210.253 156.962C209.981 157.121 209.845 157.325 209.845 157.574C209.845 157.801 209.941 157.971 210.134 158.084C210.338 158.197 210.604 158.288 210.933 158.356C211.261 158.424 211.618 158.486 212.004 158.543C212.4 158.588 212.797 158.662 213.194 158.764C213.59 158.866 213.947 159.013 214.265 159.206C214.593 159.387 214.86 159.642 215.064 159.971C215.268 160.288 215.37 160.708 215.37 161.229C215.37 161.796 215.2 162.3 214.86 162.742C214.52 163.173 214.027 163.513 213.381 163.762C212.746 164.011 211.97 164.136 211.052 164.136ZM220.338 164.136C219.261 164.136 218.422 163.864 217.822 163.32C217.221 162.765 216.921 161.943 216.921 160.855V152.831H219.573V160.821C219.573 161.206 219.675 161.507 219.879 161.722C220.083 161.926 220.36 162.028 220.712 162.028C221.131 162.028 221.488 161.915 221.783 161.688L222.497 163.558C222.225 163.751 221.896 163.898 221.511 164C221.137 164.091 220.746 164.136 220.338 164.136ZM215.51 157.098V155.058H221.851V157.098H215.51ZM233.543 154.718C234.268 154.718 234.914 154.865 235.481 155.16C236.059 155.443 236.512 155.885 236.841 156.486C237.17 157.075 237.334 157.835 237.334 158.764V164H234.682V159.172C234.682 158.435 234.518 157.891 234.189 157.54C233.872 157.189 233.418 157.013 232.829 157.013C232.41 157.013 232.03 157.104 231.69 157.285C231.361 157.455 231.101 157.721 230.908 158.084C230.727 158.447 230.636 158.911 230.636 159.478V164H227.984V154.854H230.517V157.387L230.041 156.622C230.37 156.01 230.84 155.54 231.452 155.211C232.064 154.882 232.761 154.718 233.543 154.718ZM243.748 164.136C242.774 164.136 241.907 163.932 241.147 163.524C240.399 163.116 239.804 162.561 239.362 161.858C238.932 161.144 238.716 160.334 238.716 159.427C238.716 158.509 238.932 157.699 239.362 156.996C239.804 156.282 240.399 155.727 241.147 155.33C241.907 154.922 242.774 154.718 243.748 154.718C244.712 154.718 245.573 154.922 246.332 155.33C247.092 155.727 247.687 156.276 248.117 156.979C248.548 157.682 248.763 158.498 248.763 159.427C248.763 160.334 248.548 161.144 248.117 161.858C247.687 162.561 247.092 163.116 246.332 163.524C245.573 163.932 244.712 164.136 243.748 164.136ZM243.748 161.96C244.19 161.96 244.587 161.858 244.938 161.654C245.29 161.45 245.567 161.161 245.771 160.787C245.975 160.402 246.077 159.948 246.077 159.427C246.077 158.894 245.975 158.441 245.771 158.067C245.567 157.693 245.29 157.404 244.938 157.2C244.587 156.996 244.19 156.894 243.748 156.894C243.306 156.894 242.91 156.996 242.558 157.2C242.207 157.404 241.924 157.693 241.708 158.067C241.504 158.441 241.402 158.894 241.402 159.427C241.402 159.948 241.504 160.402 241.708 160.787C241.924 161.161 242.207 161.45 242.558 161.654C242.91 161.858 243.306 161.96 243.748 161.96ZM251.97 164L248.672 154.854H251.171L253.908 162.725H252.718L255.574 154.854H257.818L260.589 162.725H259.399L262.221 154.854H264.567L261.252 164H258.685L256.254 157.251H257.036L254.52 164H251.97ZM265.579 159.869L265.052 152.1H268.214L267.687 159.869H265.579ZM266.633 164.136C266.157 164.136 265.766 163.983 265.46 163.677C265.154 163.371 265.001 163.008 265.001 162.589C265.001 162.158 265.154 161.801 265.46 161.518C265.766 161.223 266.157 161.076 266.633 161.076C267.12 161.076 267.511 161.223 267.806 161.518C268.112 161.801 268.265 162.158 268.265 162.589C268.265 163.008 268.112 163.371 267.806 163.677C267.511 163.983 267.12 164.136 266.633 164.136Z" fill="#BDBDBD"/>
<path fill-rule="evenodd" clip-rule="evenodd" d="M148.582 255.591C108.403 234.935 68.7627 205.16 61.114 160.003C53.8138 116.903 83.6742 78.8318 113.264 47.077C138.856 19.6128 172.021 0.745698 209.191 1.09165C245.676 1.43123 280.957 18.5257 302.009 48.8337C321.682 77.1546 314.036 112.818 310.795 147.364C306.562 192.493 318.245 248.174 280.979 273.038C241.801 299.177 190.361 277.07 148.582 255.591Z" stroke="url(#paint0_angular_1_2996)" stroke-width="2" stroke-linecap="round" stroke-linejoin="round" stroke-dasharray="28 20"/>
<path fill-rule="evenodd" clip-rule="evenodd" d="M148.582 255.591C108.403 234.935 68.7627 205.16 61.114 160.003C53.8138 116.903 83.6742 78.8318 113.264 47.077C138.856 19.6128 172.021 0.745698 209.191 1.09165C245.676 1.43123 280.957 18.5257 302.009 48.8337C321.682 77.1546 314.036 112.818 310.795 147.364C306.562 192.493 318.245 248.174 280.979 273.038C241.801 299.177 190.361 277.07 148.582 255.591Z" stroke="#1F2034" stroke-opacity="0.3" stroke-width="2" stroke-linecap="round" stroke-linejoin="round" stroke-dasharray="28 20"/>
<defs>
<radialGradient id="paint0_angular_1_2996" cx="0" cy="0" r="1" gradientUnits="userSpaceOnUse" gradientTransform="translate(187.5 143) rotate(153.563) scale(173.837 192.624)">
<stop offset="0.357314" stop-color="#B6E2E7"/>
<stop offset="1" stop-color="#C5ABCF"/>
</radialGradient>
</defs>
</svg>
