<svg width="24" height="30" viewBox="0 0 24 30" fill="none" xmlns="http://www.w3.org/2000/svg">
<g clip-path="url(#clip0_4057_20679)">
<path d="M23.985 10.4453V19.2673C23.9846 19.5433 23.9674 19.8189 23.9333 20.0922C23.92 20.1946 23.9067 20.2989 23.8883 20.3994C23.8503 20.6302 23.8002 20.8582 23.7383 21.0821C23.7117 21.1732 23.6867 21.2718 23.655 21.3514C23.5954 21.5379 23.5276 21.7208 23.4517 21.8995C23.435 21.9336 23.42 21.9677 23.405 22.0019C22.975 22.9581 22.3268 23.7651 21.5283 24.3382L21.5117 24.3534C21.4583 24.3932 21.4033 24.4293 21.345 24.4691L20.525 25.0077L17.4734 27.0121L14.64 28.8782C14.5267 28.9521 14.4134 29.0204 14.3067 29.0849C14.265 29.1057 14.2234 29.1304 14.1784 29.1494C14.1575 29.1626 14.1358 29.1741 14.1134 29.1835C14.0267 29.2271 13.9467 29.265 13.855 29.3011C13.7634 29.3371 13.6884 29.3693 13.61 29.3997C13.3648 29.4889 13.1141 29.5573 12.86 29.6045C12.7484 29.6254 12.6334 29.6386 12.5267 29.6538C12.42 29.669 12.36 29.669 12.27 29.6747C12.13 29.6747 11.9867 29.6841 11.845 29.6747L11.7017 29.6652C11.6113 29.6629 11.5211 29.6541 11.4317 29.6386C11.3758 29.6347 11.3202 29.6271 11.265 29.6159C11.1784 29.6007 11.0984 29.5855 11.0067 29.5647L10.8684 29.5286C10.7236 29.4941 10.5806 29.4504 10.44 29.3978C10.353 29.3694 10.2673 29.3358 10.1834 29.2973C10.0967 29.2612 10.0167 29.2233 9.93004 29.1816C9.90789 29.1736 9.88618 29.1641 9.86504 29.1532L9.83171 29.1323C9.81504 29.1323 9.80004 29.1171 9.78338 29.1057L9.60671 29.0109C9.59354 29.0012 9.57959 28.993 9.56505 28.9863L9.38838 28.8744L8.60338 28.3586L8.00005 27.9945L7.73172 27.8162L7.33672 27.5545C7.334 27.5554 7.33111 27.5554 7.32839 27.5545H7.31505L7.25005 27.4976L7.21839 27.4767L6.55172 27.0425L5.34839 26.2498L3.32007 24.9223L2.64007 24.4634C2.5384 24.397 2.44007 24.3269 2.3434 24.2529C2.05618 24.0373 1.78823 23.7903 1.5434 23.5152L1.5134 23.4792C0.721909 22.5597 0.209721 21.3762 0.0517425 20.1017C0.0517425 20.06 0.0400758 20.0164 0.0384092 19.9746C0.011692 19.7401 -0.00111474 19.5038 7.59742e-05 19.2673V10.4453C0.00019699 9.39115 0.24424 8.35562 0.707667 7.44282C1.17109 6.53003 1.83757 5.77216 2.64007 5.24542L9.35338 0.832528C9.64551 0.640272 9.95369 0.481462 10.2734 0.358431C10.3567 0.326193 10.44 0.293954 10.5284 0.265508C10.6167 0.237063 10.695 0.216202 10.7684 0.195342C10.8417 0.174482 10.9717 0.142243 11.0734 0.121383C11.2534 0.0821893 11.4354 0.0562184 11.6184 0.0436312H11.6867C11.8084 0.0436312 11.9284 0.0322529 12.0517 0.0436312C12.175 0.0550096 12.345 0.0569059 12.4917 0.0701806C12.5028 0.0683113 12.514 0.0683113 12.525 0.0701806C12.625 0.0815589 12.72 0.09673 12.82 0.113798C12.9967 0.147932 13.175 0.189653 13.3484 0.242752C13.7975 0.378016 14.229 0.580146 14.6317 0.843906L21.3433 5.2568C22.1449 5.78204 22.811 6.53795 23.2746 7.44866C23.7383 8.35936 23.9833 9.39282 23.985 10.4453Z" fill="url(#paint0_linear_4057_20679)"/>
<path d="M21.5114 24.353L21.3864 24.4403L21.3447 24.4687C21.4031 24.4289 21.4581 24.3929 21.5114 24.353Z" fill="url(#paint1_linear_4057_20679)" stroke="#3785A0" stroke-width="0.25" stroke-miterlimit="10"/>
<path d="M17.5571 13.3865H12.3555C15.3855 13.303 15.5505 12.0097 15.5505 12.0097C15.5505 12.0097 16.0405 9.95403 14.1921 9.29219C13.918 9.19581 13.6324 9.14846 13.3455 9.15186C13.2435 9.15476 13.1434 9.12049 13.0597 9.05405C12.9761 8.98761 12.9133 8.89248 12.8805 8.78256C12.8478 8.67264 12.8467 8.55367 12.8776 8.44305C12.9085 8.33242 12.9696 8.23592 13.0521 8.16764L13.0671 8.15436C19.1288 3.14222 22.4004 8.20367 22.4004 8.20367C24.4454 13.5856 17.5571 13.3865 17.5571 13.3865Z" fill="url(#paint2_linear_4057_20679)"/>
<path d="M19.2588 11.7271C19.0489 12.2299 18.7164 12.6535 18.301 12.9473C17.8855 13.2412 17.4046 13.393 16.9155 13.3846H12.3555C15.3855 13.3011 15.5505 12.0078 15.5505 12.0078C15.5505 12.0078 16.0405 9.95401 14.1921 9.29217C13.918 9.19578 13.6324 9.14844 13.3455 9.15184C13.2435 9.15474 13.1434 9.12046 13.0597 9.05402C12.9761 8.98758 12.9133 8.89246 12.8805 8.78253C12.8478 8.67261 12.8467 8.55365 12.8776 8.44302C12.9085 8.33239 12.9696 8.23589 13.0521 8.16761L13.0671 8.15434C13.3171 7.98177 16.5305 5.83885 18.6388 8.58292C19.6004 9.84022 19.5821 10.9136 19.2588 11.7271Z" fill="url(#paint3_linear_4057_20679)"/>
<path d="M1.36024 20.3346L2.27857 23.293L1.5119 23.4826C0.720385 22.5618 0.208746 21.3769 0.0519098 20.1013C0.0519098 20.0596 0.0402431 20.016 0.0385765 19.9743L0.0235765 16.7997C0.015991 15.9068 0.319116 15.0468 0.866797 14.4073C1.41448 13.7678 2.16224 13.4007 2.9469 13.3862H3.08523H13.1785C2.52523 13.3862 1.36024 20.3346 1.36024 20.3346Z" fill="url(#paint4_linear_4057_20679)"/>
<path d="M22.8685 15.6678C22.7018 15.9068 22.5101 16.1685 22.3235 16.4434C21.4551 17.7254 19.0285 20.1016 15.8685 20.1016L5.36852 22.5669C5.26134 23.0139 5.23525 23.481 5.29185 23.9398C5.45852 25.4892 6.36018 26.6877 7.32018 27.543L7.27352 27.5107L7.24685 27.4918C6.44185 26.9229 -0.143128 22.034 4.06686 16.1135C5.80185 14.6646 8.62184 13.394 13.1718 13.394H17.5501C17.5501 13.394 24.4385 13.5837 22.4051 8.2207C22.4601 8.28897 23.3201 9.39267 23.7385 11.6342C23.7385 11.6342 23.7385 11.6494 23.7385 11.6589C23.8686 12.3585 23.8579 13.0825 23.7072 13.7768C23.5566 14.471 23.2698 15.1175 22.8685 15.6678Z" fill="url(#paint5_linear_4057_20679)"/>
<path d="M23.9848 17.0482V19.267C23.9826 20.279 23.7563 21.274 23.327 22.1603C22.8976 23.0465 22.279 23.7954 21.5281 24.3379C23.1365 23.0711 22.3281 20.0919 20.3032 20.0919H15.8682C19.0348 20.0919 21.4548 17.7252 22.3231 16.4433C22.3305 16.431 22.3388 16.4195 22.3481 16.4091C22.4648 16.237 22.6259 16.1108 22.8088 16.0483C22.9917 15.9858 23.1873 15.9901 23.3679 16.0607C23.5486 16.1312 23.7053 16.2644 23.8159 16.4416C23.9266 16.6187 23.9857 16.8309 23.9848 17.0482Z" fill="url(#paint6_linear_4057_20679)"/>
<path d="M21.5286 24.3381L21.5119 24.3533C21.4586 24.3931 21.4036 24.4291 21.3453 24.4689L20.5253 25.0075L17.4736 27.0101L14.6403 28.8761C14.527 28.9501 14.4136 29.0184 14.307 29.0828C14.2653 29.1037 14.2236 29.1284 14.1786 29.1473C14.1578 29.1606 14.136 29.172 14.1136 29.1815C14.027 29.2251 13.947 29.263 13.8553 29.299C13.7636 29.3351 13.6886 29.3673 13.6103 29.3976C13.3651 29.4868 13.1144 29.5553 12.8603 29.6025C12.7486 29.6233 12.6336 29.6366 12.527 29.6518C12.4203 29.6669 12.3603 29.6669 12.2703 29.6726C12.1288 29.6821 11.9868 29.6821 11.8453 29.6726L11.702 29.6631C11.6116 29.6609 11.5214 29.652 11.432 29.6366C11.3761 29.6326 11.3204 29.625 11.2653 29.6138C11.1786 29.5987 11.0986 29.5835 11.007 29.5626L10.8686 29.5266C10.7238 29.4921 10.5808 29.4484 10.4403 29.3957C10.3533 29.3674 10.2676 29.3338 10.1836 29.2952C10.097 29.2592 10.017 29.2213 9.93031 29.1796C9.90816 29.1716 9.88645 29.1621 9.86531 29.1511L9.83198 29.1322C9.81531 29.1322 9.80031 29.117 9.78364 29.1056L9.60698 29.0108C9.5938 29.0011 9.57985 28.9928 9.56531 28.9861L9.38865 28.8742L8.60365 28.3584L8.00032 27.9943L7.73198 27.8161L7.33699 27.5544C7.33426 27.5553 7.33137 27.5553 7.32865 27.5544C7.24699 27.4823 7.16199 27.4083 7.09032 27.3325C7.01865 27.2566 6.89865 27.1428 6.80365 27.0404C6.73699 26.9703 6.66865 26.8925 6.60365 26.8167C6.35413 26.5268 6.13079 26.2091 5.93699 25.8685C5.90866 25.8173 5.88199 25.7699 5.85866 25.7224C5.78775 25.5955 5.72374 25.4638 5.66699 25.328C5.61235 25.2046 5.5634 25.078 5.52032 24.9487C5.47699 24.8198 5.43699 24.6851 5.40366 24.5467C5.40366 24.5145 5.38866 24.4784 5.38033 24.4462C5.36199 24.3722 5.34866 24.2964 5.33533 24.2224C5.32199 24.1484 5.30366 24.0328 5.29366 23.9361C5.26499 23.689 5.25829 23.4393 5.27366 23.1908C5.27518 23.1354 5.2802 23.0803 5.28866 23.0258C5.28874 23.0027 5.29154 22.9797 5.29699 22.9575C5.30234 22.9065 5.31013 22.8559 5.32033 22.8058V22.7944C5.32126 22.7843 5.32126 22.7742 5.32033 22.7641C5.32033 22.7641 5.32033 22.7432 5.32033 22.7337C5.33033 22.675 5.34366 22.6181 5.35699 22.5631C5.71532 21.1275 6.95365 20.5169 7.80532 20.2647C8.08794 20.1825 8.3762 20.1279 8.66698 20.1016H20.2969C22.3336 20.1016 23.1369 23.0713 21.5286 24.3381Z" fill="url(#paint7_linear_4057_20679)"/>
<path d="M14.6336 28.878C14.5203 28.952 14.407 29.0203 14.3003 29.0847C14.2586 29.1056 14.217 29.1303 14.172 29.1492C14.1511 29.1625 14.1294 29.1739 14.107 29.1834C14.0203 29.227 13.9403 29.2649 13.8486 29.3009C13.757 29.337 13.682 29.3692 13.6036 29.3995C13.3584 29.4887 13.1077 29.5572 12.8536 29.6044C12.742 29.6252 12.627 29.6385 12.5203 29.6537C12.4136 29.6688 12.3536 29.6688 12.2636 29.6745C12.1221 29.684 11.9802 29.684 11.8386 29.6745L11.6953 29.665C11.6049 29.6628 11.5147 29.6539 11.4253 29.6385C11.3694 29.6345 11.3138 29.6269 11.2586 29.6157C11.172 29.6006 11.092 29.5854 11.0003 29.5645L10.862 29.5285C10.7172 29.494 10.5742 29.4503 10.4336 29.3976C10.3466 29.3693 10.2609 29.3357 10.177 29.2971C10.0903 29.2611 10.0103 29.2232 9.92364 29.1815C9.90149 29.1735 9.87978 29.164 9.85864 29.153L9.82531 29.134C9.80864 29.134 9.79364 29.1189 9.77698 29.1113L9.57198 29.0146C9.55881 29.0049 9.54485 28.9966 9.53031 28.9899L9.35365 28.878C9.00365 28.66 8.52031 28.3414 8.00532 27.9943L7.73698 27.8161L7.34199 27.5544C7.33926 27.5553 7.33637 27.5553 7.33365 27.5544C7.25199 27.4823 7.16699 27.4083 7.09532 27.3325C7.02365 27.2566 6.90365 27.1428 6.80865 27.0404C6.74199 26.9703 6.67365 26.8925 6.60865 26.8167C6.35913 26.5268 6.13579 26.2091 5.94199 25.8685C5.91366 25.8173 5.88699 25.7699 5.86366 25.7225C5.79104 25.5957 5.72536 25.464 5.66699 25.328C5.61235 25.2046 5.5634 25.078 5.52032 24.9487C5.47699 24.8198 5.43699 24.6851 5.40366 24.5467C5.40366 24.5145 5.38866 24.4784 5.38033 24.4462C5.36199 24.3722 5.34866 24.2964 5.33533 24.2224C5.32199 24.1484 5.30366 24.0328 5.29366 23.9361C5.26499 23.689 5.25829 23.4393 5.27366 23.1908C5.27518 23.1354 5.2802 23.0803 5.28866 23.0258C5.28874 23.0027 5.29154 22.9797 5.29699 22.9575C5.30234 22.9065 5.31013 22.8559 5.32033 22.8058V22.7944C5.32126 22.7843 5.32126 22.7742 5.32033 22.7641C5.32033 22.7641 5.32033 22.7432 5.32033 22.7337C5.33033 22.675 5.34366 22.6181 5.35699 22.5631C5.71532 21.1275 6.95365 20.5169 7.80532 20.2647C8.08794 20.1825 8.3762 20.1279 8.66698 20.1016H11.0003C10.8237 20.1522 10.6672 20.2689 10.556 20.433C10.4447 20.5971 10.3852 20.7989 10.387 21.0061C10.3866 21.1323 10.4099 21.2571 10.4553 21.3721C10.5152 21.5268 10.613 21.6585 10.737 21.7514L13.737 24.1143L14.772 24.9317C15.0564 25.156 15.2865 25.4585 15.4409 25.811C15.5953 26.1634 15.669 26.5546 15.6552 26.9481C15.6414 27.3416 15.5405 27.7248 15.362 28.0621C15.1834 28.3995 14.9329 28.6801 14.6336 28.878Z" fill="url(#paint8_linear_4057_20679)"/>
<path d="M4.07015 16.1191C-0.139838 22.034 6.44514 26.9285 7.25014 27.4975L6.54847 27.0423C6.16075 26.7526 5.759 26.488 5.34514 26.2496L2.64015 24.4632C2.2402 24.2023 1.87159 23.8836 1.54349 23.515C1.34978 23.2903 1.19819 23.0232 1.09792 22.7298C0.99765 22.4364 0.950782 22.1229 0.960158 21.8083C1.00016 20.4145 1.45682 17.8923 4.07015 16.1191Z" fill="url(#paint9_linear_4057_20679)"/>
<path d="M20.5253 25.0073L17.4736 27.0118L14.6403 28.8778C14.5269 28.9518 14.4136 29.02 14.3069 29.0845C14.2653 29.1054 14.2236 29.13 14.1786 29.149C14.1578 29.1623 14.136 29.1737 14.1136 29.1831C14.0269 29.2267 13.9469 29.2647 13.8553 29.3007C13.7636 29.3367 13.6886 29.369 13.6103 29.3993C13.3651 29.4885 13.1144 29.557 12.8603 29.6041C12.7486 29.625 12.6336 29.6383 12.5269 29.6534C12.4203 29.6686 12.3603 29.6686 12.2703 29.6743C12.1303 29.6743 11.987 29.6838 11.8453 29.6743L11.702 29.6648C11.6115 29.6625 11.5214 29.6537 11.432 29.6383C11.3761 29.6343 11.3204 29.6267 11.2653 29.6155C11.1786 29.6003 11.0986 29.5852 11.007 29.5643L10.8686 29.5283C10.7238 29.4938 10.5808 29.4501 10.4403 29.3974C10.3533 29.369 10.2676 29.3355 10.1836 29.2969C10.097 29.2609 10.017 29.2229 9.93029 29.1812C9.90814 29.1733 9.88643 29.1638 9.86529 29.1528L9.83196 29.1319C9.81529 29.1319 9.80029 29.1167 9.78362 29.1054L9.60696 29.0105C9.59379 29.0009 9.57983 28.9926 9.56529 28.9859L9.38863 28.874L8.60363 28.3582L8.0003 27.9941L7.73196 27.8158L7.33697 27.5541C7.33424 27.555 7.33136 27.555 7.32863 27.5541H7.3153L7.2503 27.4972L7.21863 27.4764L6.55197 27.0421L5.34864 26.2494L3.32031 24.9219L3.68031 23.6495L6.1953 14.7573L6.58364 13.3862L10.2736 0.358057C10.357 0.325818 10.4403 0.293579 10.5286 0.265134C10.617 0.236688 10.6953 0.215827 10.7686 0.194967C10.842 0.174107 10.972 0.141868 11.0736 0.121008C11.2527 0.0841127 11.4336 0.0594158 11.6153 0.0470492H11.6836C11.8053 0.0470492 11.9253 0.0356709 12.0486 0.0470492C12.172 0.0584275 12.342 0.0603239 12.4886 0.0735986C12.4997 0.0717292 12.5109 0.0717292 12.5219 0.0735986C12.6219 0.0849769 12.7169 0.100148 12.8169 0.117215C12.9936 0.15135 13.1719 0.193071 13.3453 0.24617L15.2269 6.71474L15.3803 7.24383L17.1553 13.373V13.3862L18.8869 19.3655L19.0969 20.0918L20.5253 25.0073Z" fill="url(#paint10_linear_4057_20679)"/>
<path d="M11.6155 0.0473633L10.7605 13.3865V13.5212L10.3338 20.1016L10.2488 21.4291L9.74882 29.1209L9.57215 29.0147C9.55898 29.005 9.54503 28.9967 9.53048 28.99L9.35382 28.8781C9.00382 28.66 8.52049 28.3414 8.00549 27.9944L7.73716 27.8161L7.34216 27.5544C7.33944 27.5553 7.33655 27.5553 7.33383 27.5544H7.32049L7.25049 27.4975L6.54883 27.0424L6.56216 26.9704L6.59383 26.8054L7.48216 22.0758L7.81549 20.2761L9.02715 13.8113L9.10549 13.396L11.6155 0.0473633Z" fill="url(#paint11_linear_4057_20679)"/>
<path d="M17.4737 27.0101L14.6404 28.8761C14.527 28.9501 14.4137 29.0184 14.307 29.0828C14.2654 29.1037 14.2237 29.1284 14.1787 29.1473C14.1579 29.1606 14.1361 29.172 14.1137 29.1815L13.757 24.1105L13.5004 20.6496L13.4604 20.1016L13.0004 13.3903V13.3504L12.0537 0.0283203L13.6004 7.73523L13.622 7.83384L13.8987 9.21441L14.6454 12.937L14.737 13.3846L16.082 20.0864L17.4737 27.0101Z" fill="url(#paint12_linear_4057_20679)"/>
</g>
<defs>
<linearGradient id="paint0_linear_4057_20679" x1="11.9934" y1="14.8222" x2="11.9934" y2="-6.05704" gradientUnits="userSpaceOnUse">
<stop offset="0.26" stop-color="#E3F4F1"/>
<stop offset="1" stop-color="#B7DDD3"/>
</linearGradient>
<linearGradient id="paint1_linear_4057_20679" x1="21.3447" y1="24.4099" x2="21.5114" y2="24.4099" gradientUnits="userSpaceOnUse">
<stop offset="0.29" stop-color="#62C2B8"/>
<stop offset="1" stop-color="#3374A8"/>
</linearGradient>
<linearGradient id="paint2_linear_4057_20679" x1="16.6755" y1="10.5931" x2="23.1395" y2="7.48443" gradientUnits="userSpaceOnUse">
<stop offset="0.26" stop-color="#62C2B8"/>
<stop offset="1" stop-color="#1F5873"/>
</linearGradient>
<linearGradient id="paint3_linear_4057_20679" x1="15.2571" y1="10.9117" x2="19.3964" y2="8.266" gradientUnits="userSpaceOnUse">
<stop stop-color="#62C2B8"/>
<stop offset="1" stop-color="#1F5873"/>
</linearGradient>
<linearGradient id="paint4_linear_4057_20679" x1="170.777" y1="768.19" x2="529.582" y2="1210.82" gradientUnits="userSpaceOnUse">
<stop offset="0.26" stop-color="#62C2B8"/>
<stop offset="1" stop-color="#1F5873"/>
</linearGradient>
<linearGradient id="paint5_linear_4057_20679" x1="1.73187" y1="24.2395" x2="25.5421" y2="12.7895" gradientUnits="userSpaceOnUse">
<stop stop-color="#1F5873"/>
<stop offset="0.15" stop-color="#387F8C"/>
<stop offset="0.31" stop-color="#4FA3A4"/>
<stop offset="0.44" stop-color="#5DBAB3"/>
<stop offset="0.53" stop-color="#62C2B8"/>
<stop offset="0.6" stop-color="#5DBAB3"/>
<stop offset="0.72" stop-color="#50A6A6"/>
<stop offset="0.85" stop-color="#3B8490"/>
<stop offset="1" stop-color="#1F5873"/>
</linearGradient>
<linearGradient id="paint6_linear_4057_20679" x1="19.0465" y1="17.2701" x2="22.6077" y2="20.6908" gradientUnits="userSpaceOnUse">
<stop offset="0.29" stop-color="#62C2B8"/>
<stop offset="1" stop-color="#1F5873"/>
</linearGradient>
<linearGradient id="paint7_linear_4057_20679" x1="17.557" y1="19.5402" x2="8.38208" y2="25.6917" gradientUnits="userSpaceOnUse">
<stop stop-color="#62C2B8"/>
<stop offset="1" stop-color="#0A1938"/>
</linearGradient>
<linearGradient id="paint8_linear_4057_20679" x1="14.9303" y1="29.4716" x2="6.61395" y2="23.1748" gradientUnits="userSpaceOnUse">
<stop offset="0.29" stop-color="#62C2B8"/>
<stop offset="1" stop-color="#104249"/>
</linearGradient>
<linearGradient id="paint9_linear_4057_20679" x1="329.043" y1="1631.16" x2="-49.123" y2="1451.01" gradientUnits="userSpaceOnUse">
<stop offset="0.29" stop-color="#62C2B8"/>
<stop offset="1" stop-color="#104249"/>
</linearGradient>
<linearGradient id="paint10_linear_4057_20679" x1="11.922" y1="29.5927" x2="11.922" y2="0.587519" gradientUnits="userSpaceOnUse">
<stop stop-color="white" stop-opacity="0.3"/>
<stop offset="1" stop-color="#FFFF8A" stop-opacity="0.3"/>
</linearGradient>
<linearGradient id="paint11_linear_4057_20679" x1="282.681" y1="4653.84" x2="282.681" y2="294.853" gradientUnits="userSpaceOnUse">
<stop stop-color="white" stop-opacity="0.3"/>
<stop offset="1" stop-color="#FFFF8A" stop-opacity="0.3"/>
</linearGradient>
<linearGradient id="paint12_linear_4057_20679" x1="492.156" y1="4677.07" x2="492.156" y2="293.018" gradientUnits="userSpaceOnUse">
<stop stop-color="white" stop-opacity="0.3"/>
<stop offset="1" stop-color="#FFFF8A" stop-opacity="0.3"/>
</linearGradient>
<clipPath id="clip0_4057_20679">
<rect width="24" height="29.7733" fill="white"/>
</clipPath>
</defs>
</svg>
