<svg width="121" height="120" viewBox="0 0 121 120" fill="none" xmlns="http://www.w3.org/2000/svg">
<g clip-path="url(#clip0_0_1)">
<path fill-rule="evenodd" clip-rule="evenodd" d="M27.8924 18.8998C41.9093 7.37855 59.0666 -3.15204 76.7827 0.875629C93.8227 4.74959 101.363 22.2624 109.161 37.3759C116.665 51.9201 124.512 67.2983 119.083 82.8602C113.102 100.003 98.8412 114.528 80.7163 118.907C63.0273 123.18 46.1056 114.236 31.4705 104.025C16.6594 93.6918 1.66446 80.9981 0.91773 63.2332C0.165338 45.3336 13.6692 30.5907 27.8924 18.8998Z" fill="url(#paint0_linear_0_1)"/>
</g>
<path d="M99.2111 76.3674L68.9946 20.2534C66.8529 16.2749 61.1475 16.2749 59.004 20.2534L28.7894 76.3674C28.3243 77.2311 28.0912 78.2006 28.1127 79.1813C28.1342 80.162 28.4096 81.1204 28.912 81.9629C29.4144 82.8054 30.1267 83.5032 30.9793 83.9883C31.8319 84.4733 32.7957 84.729 33.7767 84.7304H94.2149C95.1966 84.7306 96.1615 84.476 97.0153 83.9915C97.8692 83.5071 98.5827 82.8094 99.0862 81.9667C99.5896 81.1239 99.8658 80.165 99.8877 79.1835C99.9096 78.2021 99.6765 77.2318 99.2111 76.3674ZM64.0002 76.043C63.2989 76.043 62.6133 75.835 62.0302 75.4454C61.4471 75.0557 60.9926 74.5019 60.7242 73.854C60.4558 73.2061 60.3856 72.4931 60.5224 71.8053C60.6593 71.1174 60.997 70.4856 61.4929 69.9897C61.9888 69.4938 62.6206 69.1561 63.3084 69.0193C63.9963 68.8825 64.7092 68.9527 65.3572 69.2211C66.0051 69.4894 66.5589 69.9439 66.9485 70.527C67.3382 71.1102 67.5461 71.7957 67.5461 72.497C67.5461 73.4375 67.1725 74.3394 66.5076 75.0044C65.8426 75.6694 64.9407 76.043 64.0002 76.043ZM67.8511 40.38L66.8334 62.01C66.8334 62.7624 66.5345 63.4839 66.0025 64.0159C65.4706 64.5479 64.749 64.8468 63.9967 64.8468C63.2443 64.8468 62.5228 64.5479 61.9908 64.0159C61.4588 63.4839 61.1599 62.7624 61.1599 62.01L60.1423 40.3889C60.1194 39.8722 60.2008 39.3562 60.3816 38.8717C60.5624 38.3871 60.8389 37.944 61.1946 37.5686C61.5503 37.1932 61.9779 36.8932 62.452 36.6866C62.9261 36.48 63.437 36.371 63.9541 36.366H63.9914C64.512 36.3658 65.0273 36.471 65.5062 36.6753C65.9851 36.8797 66.4176 37.179 66.7777 37.5551C67.1377 37.9312 67.4178 38.3764 67.6011 38.8637C67.7843 39.351 67.867 39.8705 67.844 40.3906L67.8511 40.38Z" fill="white"/>
<defs>
<linearGradient id="paint0_linear_0_1" x1="134.138" y1="27.2775" x2="-13.3202" y2="90.4889" gradientUnits="userSpaceOnUse">
<stop offset="0.279749" stop-color="#F9BE78"/>
<stop offset="1" stop-color="#F9CA52"/>
</linearGradient>
<clipPath id="clip0_0_1">
<rect width="120" height="120" fill="white" transform="translate(0.887695)"/>
</clipPath>
</defs>
</svg>
