<svg width="40" height="24" viewBox="0 0 40 24" fill="none" xmlns="http://www.w3.org/2000/svg">
<path fill-rule="evenodd" clip-rule="evenodd" d="M31.0796 4.79916C30.6695 4.80013 30.26 4.82921 29.8542 4.8862C28.7093 3.37231 27.2103 2.1407 25.479 1.29162C23.7478 0.442547 21.8333 0 19.8914 0C17.9494 0 16.0349 0.442547 14.3037 1.29162C12.5725 2.1407 11.0734 3.37231 9.92857 4.8862C8.6145 4.70533 7.27498 4.81704 6.01254 5.2128C4.75011 5.60855 3.59823 6.27784 2.64509 7.16944C1.69196 8.06104 0.96284 9.1513 0.513552 10.3568C0.0642632 11.5622 -0.0932809 12.8509 0.0529805 14.1242C0.199242 15.3975 0.64543 16.6216 1.35739 17.7028C2.06935 18.784 3.0282 19.6937 4.16053 20.3621C5.29287 21.0306 6.56867 21.4401 7.89027 21.5594C9.21186 21.6786 10.5442 21.5045 11.7853 21.0502C14.0252 22.9514 16.9059 24 19.8887 24C22.8715 24 25.7522 22.9514 27.9921 21.0502C28.9778 21.4139 30.0243 21.5996 31.0796 21.598C32.2406 21.6257 33.3955 21.4289 34.4765 21.0192C35.5574 20.6095 36.5425 19.9953 37.3738 19.2126C38.205 18.4299 38.8656 17.4946 39.3166 16.4617C39.7676 15.4289 40 14.3194 40 13.1986C40 12.0778 39.7676 10.9683 39.3166 9.93545C38.8656 8.90261 38.205 7.96731 37.3738 7.18461C36.5425 6.40191 35.5574 5.78764 34.4765 5.37797C33.3955 4.96829 32.2406 4.7715 31.0796 4.79916ZM31.0796 19.2018C29.8003 19.1998 28.553 18.8152 27.5093 18.101C26.5886 19.1936 25.4271 20.0745 24.1093 20.6794C22.7915 21.2844 21.3506 21.5983 19.8914 21.5983C18.4321 21.5983 16.9912 21.2844 15.6734 20.6794C14.3556 20.0745 13.1941 19.1936 12.2734 18.101C11.4746 18.6429 10.5548 18.9955 9.58849 19.1301C8.62217 19.2647 7.63658 19.1776 6.71166 18.8759C5.78674 18.5741 4.94853 18.0662 4.26503 17.3934C3.58153 16.7205 3.07197 15.9016 2.77769 15.0032C2.48342 14.1047 2.41271 13.1519 2.5713 12.2221C2.72989 11.2924 3.11331 10.4118 3.69047 9.65174C4.26764 8.89172 5.02228 8.2737 5.8932 7.84781C6.76411 7.42191 7.72678 7.20014 8.70311 7.20046C9.5135 7.20019 10.3159 7.35508 11.0638 7.65615C11.8849 6.07619 13.1451 4.74779 14.7036 3.81946C16.262 2.89114 18.0573 2.3995 19.8887 2.3995C21.7201 2.3995 23.5154 2.89114 25.0739 3.81946C26.6323 4.74779 27.8925 6.07619 28.7136 7.65615C29.5634 7.31687 30.4806 7.16378 31.3991 7.20789C32.3177 7.252 33.2146 7.49222 34.0253 7.91124C34.8361 8.33027 35.5404 8.91765 36.0875 9.63106C36.6347 10.3445 37.011 11.1662 37.1895 12.0369C37.3679 12.9076 37.344 13.8057 37.1194 14.6664C36.8948 15.5271 36.4752 16.3291 35.8908 17.0144C35.3064 17.6997 34.5717 18.2514 33.7398 18.6297C32.9078 19.0079 31.9993 19.2034 31.0796 19.2018Z" fill="#1F4074"/>
<path d="M19.543 7.27832V16.4622" stroke="#1F4074" stroke-width="1.3125" stroke-linecap="round" stroke-linejoin="round"/>
<path d="M14.7852 11.8701H24.298" stroke="#1F4074" stroke-width="1.3125" stroke-linecap="round" stroke-linejoin="round"/>
</svg>
