<svg width="16" height="14" viewBox="0 0 16 14" fill="none" xmlns="http://www.w3.org/2000/svg">
<path d="M15.9688 6.99023C15.9688 6.69971 15.8442 6.40088 15.6367 6.20166L10.208 0.772949C9.97559 0.540527 9.70996 0.432617 9.44434 0.432617C8.83008 0.432617 8.39844 0.872559 8.39844 1.44531C8.39844 1.76074 8.53125 2.00977 8.72217 2.20898L10.6064 4.10156L12.7065 6.02734L10.8389 5.92773H1.11865C0.462891 5.92773 0.0229492 6.35938 0.0229492 6.99023C0.0229492 7.62109 0.462891 8.05273 1.11865 8.05273H10.8389L12.7065 7.94482L10.6064 9.87891L8.72217 11.7632C8.53125 11.9624 8.39844 12.2114 8.39844 12.5269C8.39844 13.1079 8.83008 13.5396 9.44434 13.5396C9.70996 13.5396 9.96729 13.4316 10.1914 13.2075L15.6367 7.77881C15.8442 7.57129 15.9688 7.28076 15.9688 6.99023Z" fill="#52C4D1"/>
</svg>
