<svg width="20" height="12" viewBox="0 0 20 12" fill="none" xmlns="http://www.w3.org/2000/svg">
<path d="M10 11.761C10.3946 11.7497 10.7554 11.6032 11.0485 11.2875L19.6167 2.51635C19.8647 2.26833 20 1.95266 20 1.58061C20 0.836533 19.4138 0.239014 18.6697 0.239014C18.3089 0.239014 17.9594 0.385575 17.7001 0.644876L10.0113 8.54792L2.29989 0.644876C2.04059 0.396849 1.70237 0.239014 1.33033 0.239014C0.586246 0.239014 0 0.836533 0 1.58061C0 1.95266 0.135287 2.26833 0.383315 2.51635L8.9628 11.2875C9.26719 11.6032 9.60541 11.761 10 11.761Z" fill="#A6A6A6"/>
</svg>
