<svg viewBox="0 0 12 20" fill="none" xmlns="http://www.w3.org/2000/svg">
<path d="M-0.000500162 10C0.0107732 10.3946 0.157335 10.7554 0.473006 11.0485L9.24414 19.6167C9.49217 19.8647 9.80784 20 10.1799 20C10.924 20 11.5215 19.4138 11.5215 18.6697C11.5215 18.3089 11.3749 17.9594 11.1156 17.7001L3.21258 10.0113L11.1156 2.29989C11.3636 2.04059 11.5215 1.70237 11.5215 1.33033C11.5215 0.586246 10.924 -2.61184e-08 10.1799 -5.86432e-08C9.80784 -7.49057e-08 9.49217 0.135287 9.24414 0.383314L0.473006 8.9628C0.157335 9.26719 -0.000500145 9.60541 -0.000500162 10Z" fill="#52C4D1"/>
</svg>
