<svg width="32" height="32" viewBox="0 0 32 32" fill="none" xmlns="http://www.w3.org/2000/svg">
<g opacity="0.6">
<path fill-rule="evenodd" clip-rule="evenodd" d="M5.72402 5.72387C6.24472 5.20317 7.08894 5.20317 7.60964 5.72387L16.0002 14.1144L24.3907 5.72387C24.9114 5.20317 25.7556 5.20317 26.2763 5.72387C26.797 6.24457 26.797 7.08879 26.2763 7.60949L17.8858 16L26.2763 24.3905C26.797 24.9112 26.797 25.7555 26.2763 26.2762C25.7556 26.7969 24.9114 26.7969 24.3907 26.2762L16.0002 17.8856L7.60964 26.2762C7.08894 26.7969 6.24472 26.7969 5.72402 26.2762C5.20332 25.7555 5.20332 24.9112 5.72402 24.3905L14.1145 16L5.72402 7.60949C5.20332 7.08879 5.20332 6.24457 5.72402 5.72387Z" fill="#D9D9D9"/>
</g>
</svg>
