<svg width="42" height="26" viewBox="0 0 42 26" fill="none" xmlns="http://www.w3.org/2000/svg">
<path fill-rule="evenodd" clip-rule="evenodd" d="M32.0179 5.12113C31.5954 5.12216 31.1735 5.1532 30.7554 5.21401C29.576 3.59855 28.0317 2.28431 26.2482 1.37828C24.4647 0.472237 22.4924 0 20.4918 0C18.4913 0 16.519 0.472237 14.7355 1.37828C12.952 2.28431 11.4077 3.59855 10.2283 5.21401C8.87456 5.02101 7.4946 5.14021 6.19405 5.56252C4.89351 5.98482 3.70685 6.69901 2.72495 7.65043C1.74304 8.60185 0.991907 9.76525 0.529055 11.0516C0.0662032 12.3379 -0.0960969 13.7131 0.0545799 15.0718C0.205257 16.4305 0.664915 17.7367 1.39837 18.8905C2.13182 20.0442 3.11961 21.0149 4.28613 21.7282C5.45266 22.4415 6.76697 22.8785 8.12846 23.0058C9.48996 23.133 10.8625 22.9472 12.1411 22.4624C14.4486 24.4911 17.4162 25.6101 20.4891 25.6101C23.562 25.6101 26.5297 24.4911 28.8371 22.4624C29.8526 22.8505 30.9307 23.0487 32.0179 23.047C33.2139 23.0765 34.4037 22.8665 35.5173 22.4294C36.6309 21.9922 37.6457 21.3367 38.502 20.5015C39.3584 19.6663 40.0389 18.6683 40.5035 17.5661C40.9682 16.464 41.2075 15.2801 41.2075 14.0841C41.2075 12.8881 40.9682 11.7041 40.5035 10.602C40.0389 9.49988 39.3584 8.50183 38.502 7.66662C37.6457 6.83141 36.6309 6.17593 35.5173 5.73877C34.4037 5.30161 33.2139 5.09161 32.0179 5.12113ZM32.0179 20.4901C30.6999 20.4879 29.415 20.0775 28.3398 19.3154C27.3913 20.4813 26.1947 21.4212 24.8371 22.0668C23.4796 22.7123 21.9952 23.0473 20.4918 23.0473C18.9885 23.0473 17.5041 22.7123 16.1466 22.0668C14.789 21.4212 13.5925 20.4813 12.6439 19.3154C11.821 19.8937 10.8734 20.2699 9.87795 20.4135C8.88246 20.5572 7.86712 20.4642 6.91427 20.1422C5.96143 19.8203 5.09792 19.2783 4.39379 18.5603C3.68965 17.8423 3.16471 16.9685 2.86155 16.0097C2.55839 15.051 2.48554 14.0343 2.64892 13.0421C2.8123 12.05 3.2073 11.1103 3.80188 10.2993C4.39647 9.48826 5.17389 8.82878 6.0711 8.37431C6.96831 7.91984 7.96004 7.68319 8.96585 7.68353C9.8007 7.68325 10.6273 7.84852 11.3978 8.16979C12.2437 6.48383 13.5419 5.06631 15.1474 4.07571C16.753 3.08511 18.6024 2.56048 20.4891 2.56048C22.3758 2.56048 24.2253 3.08511 25.8308 4.07571C27.4363 5.06631 28.7346 6.48383 29.5804 8.16979C30.4559 7.80775 31.4008 7.64439 32.347 7.69146C33.2933 7.73853 34.2173 7.99487 35.0525 8.442C35.8877 8.88913 36.6133 9.51592 37.177 10.2772C37.7406 11.0385 38.1283 11.9153 38.3122 12.8444C38.496 13.7736 38.4713 14.7319 38.24 15.6504C38.0086 16.5688 37.5764 17.4246 36.9743 18.1559C36.3723 18.8872 35.6154 19.4759 34.7583 19.8795C33.9013 20.2832 32.9653 20.4917 32.0179 20.4901Z" fill="white"/>
<circle cx="20.1602" cy="12.1602" r="3.16016" fill="white"/>
<circle cx="25.8477" cy="12.1602" r="3.16016" fill="white"/>
<circle cx="20.7402" cy="12.4766" r="1.5" fill="#1F4074"/>
<circle cx="26.1641" cy="12.4766" r="1.5" fill="#1F4074"/>
</svg>
