<svg width="36" height="36" viewBox="0 0 36 36" fill="none" xmlns="http://www.w3.org/2000/svg">
<path fill-rule="evenodd" clip-rule="evenodd" d="M27.7368 4.74565C27.38 4.74497 27.0236 4.76966 26.6703 4.81952C25.674 3.45442 24.3694 2.34386 22.8628 1.57824C21.3562 0.812624 19.69 0.413574 18 0.413574C16.31 0.413574 14.6438 0.812624 13.1372 1.57824C11.6306 2.34386 10.326 3.45442 9.32965 4.81952C8.97639 4.76933 8.61998 4.74464 8.26317 4.74565C7.25283 4.7207 6.2477 4.89815 5.30697 5.26756C4.36625 5.63697 3.50895 6.19086 2.78554 6.89663C2.06213 7.6024 1.48724 8.44577 1.09473 9.37709C0.702211 10.3084 0.5 11.3088 0.5 12.3195C0.5 13.3302 0.702211 14.3306 1.09473 15.2619C1.48724 16.1932 2.06213 17.0366 2.78554 17.7424C3.50895 18.4481 4.36625 19.002 5.30697 19.3714C6.2477 19.7409 7.25283 19.9183 8.26317 19.8934C9.18091 19.8904 10.0902 19.7182 10.9455 19.3855C12.896 21.0992 15.4036 22.0444 18 22.0444C20.5964 22.0444 23.104 21.0992 25.0545 19.3855C25.9107 19.7135 26.82 19.881 27.7368 19.8795C28.7472 19.9045 29.7523 19.727 30.693 19.3576C31.6337 18.9882 32.4911 18.4343 33.2145 17.7285C33.9379 17.0228 34.5128 16.1794 34.9053 15.2481C35.2978 14.3167 35.5 13.3163 35.5 12.3057C35.5 11.295 35.2978 10.2946 34.9053 9.36324C34.5128 8.43192 33.9379 7.58855 33.2145 6.88278C32.4911 6.17701 31.6337 5.62312 30.693 5.25371C29.7523 4.8843 28.7472 4.70685 27.7368 4.7318V4.74565ZM27.7368 17.7281C26.6253 17.7278 25.5413 17.3826 24.6343 16.7401C23.8326 17.7254 22.8213 18.5197 21.6741 19.0652C20.5269 19.6107 19.2726 19.8937 18.0023 19.8937C16.732 19.8937 15.4777 19.6107 14.3305 19.0652C13.1833 18.5197 12.172 17.7254 11.3703 16.7401C10.6021 17.2807 9.7064 17.6118 8.77134 17.7008C7.83629 17.7898 6.89417 17.6337 6.03781 17.2478C5.18146 16.8619 4.44042 16.2595 3.88771 15.5001C3.335 14.7406 2.9897 13.8503 2.88582 12.9167C2.78194 11.9832 2.92308 11.0387 3.29532 10.1764C3.66755 9.31398 4.25805 8.56346 5.00863 7.99875C5.7592 7.43405 6.64396 7.07463 7.57572 6.95593C8.50747 6.83723 9.45408 6.96334 10.3223 7.32182C11.036 5.89697 12.1323 4.69885 13.4882 3.86154C14.8442 3.02423 16.4064 2.58076 18 2.58076C19.5936 2.58076 21.1558 3.02423 22.5118 3.86154C23.8677 4.69885 24.9639 5.89697 25.6777 7.32182C26.4164 7.01805 27.2132 6.88173 28.0108 6.92264C28.8085 6.96355 29.5871 7.18069 30.2909 7.55844C30.9946 7.93618 31.6058 8.46516 32.0807 9.10733C32.5556 9.7495 32.8823 10.4889 33.0373 11.2724C33.1924 12.0559 33.1719 12.864 32.9773 13.6387C32.7828 14.4133 32.419 15.1352 31.9122 15.7525C31.4054 16.3698 30.7681 16.8671 30.0461 17.2087C29.3242 17.5503 28.5355 17.7276 27.7368 17.7281Z" fill="white"/>
<path d="M4.34764 28.0425L2.07617 24.7969L4.34764 21.5513L6.6191 24.7969L4.34764 28.0425Z" fill="white"/>
<path d="M11.1758 31.4263L8.9043 28.1807L11.1758 24.9351L13.4472 28.1807L11.1758 31.4263Z" fill="white"/>
<path d="M18 35.5862L15.7285 32.3406L18 29.0903L20.2714 32.3406L18 35.5862Z" fill="white"/>
<path d="M24.8269 31.4263L22.5508 28.1807L24.8269 24.9351L27.0983 28.1807L24.8269 31.4263Z" fill="white"/>
<path d="M31.6523 28.0425L29.3809 24.7969L31.6523 21.5513L33.9238 24.7969L31.6523 28.0425Z" fill="white"/>
</svg>
