<svg width="36" height="34" viewBox="0 0 36 34" fill="none" xmlns="http://www.w3.org/2000/svg">
<path fill-rule="evenodd" clip-rule="evenodd" d="M27.8263 4.99304C27.4662 4.99236 27.1066 5.01727 26.75 5.06757C25.7446 3.69036 24.428 2.56996 22.9076 1.79756C21.3871 1.02515 19.7057 0.622559 18.0002 0.622559C16.2947 0.622559 14.6133 1.02515 13.0929 1.79756C11.5724 2.56996 10.2559 3.69036 9.25042 5.06757C8.89392 5.01693 8.53424 4.99203 8.17416 4.99304C7.15456 4.96787 6.14022 5.1469 5.19087 5.51959C4.24153 5.89227 3.37636 6.45108 2.64633 7.1631C1.91629 7.87512 1.33614 8.72597 0.940022 9.66555C0.543908 10.6051 0.339844 11.6144 0.339844 12.6341C0.339844 13.6537 0.543908 14.663 0.940022 15.6026C1.33614 16.5421 1.91629 17.393 2.64633 18.105C3.37636 18.817 4.24153 19.3758 5.19087 19.7485C6.14022 20.1212 7.15456 20.3002 8.17416 20.2751C9.09827 20.2825 10.0159 20.1199 10.8811 19.7953C11.7191 20.512 12.6618 21.0963 13.6766 21.528L15.3771 19.7953C13.7914 19.2912 12.3811 18.3481 11.3097 17.0752C10.5346 17.6206 9.63062 17.9546 8.68699 18.0444C7.74336 18.1342 6.79261 17.9767 5.92841 17.5874C5.0642 17.1981 4.31637 16.5904 3.7586 15.8242C3.20083 15.058 2.85236 14.1598 2.74753 13.218C2.6427 12.2762 2.78513 11.3233 3.16078 10.4533C3.53643 9.58325 4.13234 8.82608 4.88979 8.25636C5.64725 7.68665 6.54011 7.32405 7.4804 7.2043C8.4207 7.08454 9.37598 7.21176 10.2521 7.57343C10.9725 6.13594 12.0787 4.9272 13.4471 4.08247C14.8155 3.23773 16.392 2.79033 18.0002 2.79033C19.6085 2.79033 21.185 3.23773 22.5534 4.08247C23.9217 4.9272 25.028 6.13594 25.7483 7.57343C26.6251 7.20929 27.5818 7.08002 28.5238 7.19835C29.4659 7.31668 30.3608 7.67854 31.1203 8.2482C31.8797 8.81787 32.4775 9.57566 32.8545 10.4468C33.2316 11.3179 33.3749 12.2723 33.2704 13.2157C33.1658 14.1591 32.817 15.059 32.2584 15.8265C31.6997 16.594 30.9506 17.2026 30.0848 17.5923C29.219 17.9819 28.2666 18.1392 27.3215 18.0485C26.3763 17.9578 25.4712 17.6224 24.6954 17.0752C23.9766 17.9247 23.1041 18.631 22.1235 19.1572L21.1917 21.9099C22.6327 21.4832 23.9699 20.7633 25.1193 19.7953C25.9855 20.1151 26.903 20.273 27.8263 20.2611C28.8459 20.2863 29.8602 20.1072 30.8096 19.7346C31.7589 19.3619 32.6241 18.8031 33.3541 18.091C34.0842 17.379 34.6643 16.5282 35.0604 15.5886C35.4565 14.649 35.6606 13.6397 35.6606 12.6201C35.6606 11.6005 35.4565 10.5912 35.0604 9.65158C34.6643 8.712 34.0842 7.86115 33.3541 7.14913C32.6241 6.4371 31.7589 5.8783 30.8096 5.50561C29.8602 5.13293 28.8459 4.9539 27.8263 4.97907V4.99304Z" fill="white"/>
<path fill-rule="evenodd" clip-rule="evenodd" d="M27.8263 4.99304C27.4662 4.99236 27.1066 5.01727 26.75 5.06757C25.7446 3.69036 24.428 2.56996 22.9076 1.79756C21.3871 1.02515 19.7057 0.622559 18.0002 0.622559C16.2947 0.622559 14.6133 1.02515 13.0929 1.79756C11.5724 2.56996 10.2559 3.69036 9.25042 5.06757C8.89392 5.01693 8.53424 4.99203 8.17416 4.99304C7.15456 4.96787 6.14022 5.1469 5.19087 5.51959C4.24153 5.89227 3.37636 6.45108 2.64633 7.1631C1.91629 7.87512 1.33614 8.72597 0.940022 9.66555C0.543908 10.6051 0.339844 11.6144 0.339844 12.6341C0.339844 13.6537 0.543908 14.663 0.940022 15.6026C1.33614 16.5421 1.91629 17.393 2.64633 18.105C3.37636 18.817 4.24153 19.3758 5.19087 19.7485C6.14022 20.1212 7.15456 20.3002 8.17416 20.2751C9.09827 20.2825 10.0159 20.1199 10.8811 19.7953C11.7191 20.512 12.6618 21.0963 13.6766 21.528L15.3771 19.7953C13.7914 19.2912 12.3811 18.3481 11.3097 17.0752C10.5346 17.6206 9.63062 17.9546 8.68699 18.0444C7.74336 18.1342 6.79261 17.9767 5.92841 17.5874C5.0642 17.1981 4.31637 16.5904 3.7586 15.8242C3.20083 15.058 2.85236 14.1598 2.74753 13.218C2.6427 12.2762 2.78513 11.3233 3.16078 10.4533C3.53643 9.58325 4.13234 8.82608 4.88979 8.25636C5.64725 7.68665 6.54011 7.32405 7.4804 7.2043C8.4207 7.08454 9.37598 7.21176 10.2521 7.57343C10.9725 6.13594 12.0787 4.9272 13.4471 4.08247C14.8155 3.23773 16.392 2.79033 18.0002 2.79033C19.6085 2.79033 21.185 3.23773 22.5534 4.08247C23.9217 4.9272 25.028 6.13594 25.7483 7.57343C26.6251 7.20929 27.5818 7.08002 28.5238 7.19835C29.4659 7.31668 30.3608 7.67854 31.1203 8.2482C31.8797 8.81787 32.4775 9.57566 32.8545 10.4468C33.2316 11.3179 33.3749 12.2723 33.2704 13.2157C33.1658 14.1591 32.817 15.059 32.2584 15.8265C31.6997 16.594 30.9506 17.2026 30.0848 17.5923C29.219 17.9819 28.2666 18.1392 27.3215 18.0485C26.3763 17.9578 25.4712 17.6224 24.6954 17.0752C23.9766 17.9247 23.1041 18.631 22.1235 19.1572L21.1917 21.9099C22.6327 21.4832 23.9699 20.7633 25.1193 19.7953C25.9855 20.1151 26.903 20.273 27.8263 20.2611C28.8459 20.2863 29.8602 20.1072 30.8096 19.7346C31.7589 19.3619 32.6241 18.8031 33.3541 18.091C34.0842 17.379 34.6643 16.5282 35.0604 15.5886C35.4565 14.649 35.6606 13.6397 35.6606 12.6201C35.6606 11.6005 35.4565 10.5912 35.0604 9.65158C34.6643 8.712 34.0842 7.86115 33.3541 7.14913C32.6241 6.4371 31.7589 5.8783 30.8096 5.50561C29.8602 5.13293 28.8459 4.9539 27.8263 4.97907V4.99304Z" fill="white"/>
<path fill-rule="evenodd" clip-rule="evenodd" d="M13.7324 24.6438L15.9175 26.8236L13.7324 33.377L20.2831 26.8236L18.1027 24.6438L20.2831 18.0903L13.7324 24.6438Z" fill="white"/>
</svg>
