<svg width="42" height="26" viewBox="0 0 42 26" fill="none" xmlns="http://www.w3.org/2000/svg">
<path fill-rule="evenodd" clip-rule="evenodd" d="M32.4143 5.31596C31.9919 5.31699 31.57 5.34803 31.1519 5.40884C29.9725 3.79338 28.4282 2.47914 26.6447 1.5731C24.8612 0.667062 22.8889 0.194824 20.8883 0.194824C18.8878 0.194824 16.9155 0.667062 15.132 1.5731C13.3485 2.47914 11.8042 3.79338 10.6248 5.40884C9.27105 5.21583 7.89109 5.33504 6.59054 5.75734C5.28999 6.17964 4.10334 6.89384 3.12143 7.84525C2.13952 8.79667 1.38839 9.96008 0.92554 11.2464C0.462688 12.5328 0.300387 13.9079 0.451064 15.2666C0.601741 16.6253 1.0614 17.9315 1.79485 19.0853C2.5283 20.239 3.5161 21.2097 4.68262 21.923C5.84914 22.6363 7.16346 23.0733 8.52495 23.2006C9.88644 23.3279 11.259 23.142 12.5376 22.6572C14.8451 24.686 17.8127 25.805 20.8856 25.805C23.9585 25.805 26.9261 24.686 29.2336 22.6572C30.2491 23.0453 31.3272 23.2435 32.4143 23.2418C33.6103 23.2714 34.8002 23.0614 35.9138 22.6242C37.0273 22.187 38.0422 21.5316 38.8985 20.6964C39.7548 19.8611 40.4354 18.8631 40.9 17.761C41.3647 16.6588 41.604 15.4749 41.604 14.2789C41.604 13.0829 41.3647 11.899 40.9 10.7968C40.4354 9.6947 39.7548 8.69665 38.8985 7.86144C38.0422 7.02624 37.0273 6.37076 35.9138 5.9336C34.8002 5.49644 33.6103 5.28643 32.4143 5.31596ZM32.4143 20.6849C31.0964 20.6827 29.8115 20.2723 28.7363 19.5102C27.7877 20.6762 26.5912 21.6161 25.2336 22.2616C23.8761 22.9072 22.3916 23.2421 20.8883 23.2421C19.385 23.2421 17.9006 22.9072 16.5431 22.2616C15.1855 21.6161 13.9889 20.6762 13.0404 19.5102C12.2175 20.0885 11.2699 20.4647 10.2744 20.6083C9.27895 20.752 8.2636 20.6591 7.31076 20.3371C6.35792 20.0151 5.49441 19.4731 4.79027 18.7551C4.08613 18.0371 3.56119 17.1633 3.25803 16.2045C2.95487 15.2458 2.88203 14.2291 3.04541 13.2369C3.20878 12.2448 3.60378 11.3051 4.19837 10.4941C4.79295 9.68308 5.57038 9.0236 6.46759 8.56913C7.3648 8.11467 8.35652 7.87801 9.36233 7.87836C10.1972 7.87807 11.0238 8.04334 11.7943 8.36461C12.6402 6.67866 13.9384 5.26113 15.5439 4.27053C17.1494 3.27993 18.9989 2.7553 20.8856 2.7553C22.7723 2.7553 24.6218 3.27993 26.2273 4.27053C27.8328 5.26113 29.1311 6.67866 29.9769 8.36461C30.8524 8.00258 31.7973 7.83921 32.7435 7.88628C33.6898 7.93335 34.6138 8.18969 35.449 8.63682C36.2842 9.08396 37.0098 9.71075 37.5734 10.472C38.1371 11.2333 38.5248 12.1101 38.7086 13.0392C38.8925 13.9684 38.8678 14.9267 38.6365 15.8452C38.4051 16.7637 37.9729 17.6194 37.3708 18.3507C36.7687 19.082 36.0119 19.6707 35.1548 20.0743C34.2977 20.478 33.3618 20.6865 32.4143 20.6849Z" fill="white"/>
</svg>
