<svg width="25" height="17" viewBox="0 0 25 17" fill="none" xmlns="http://www.w3.org/2000/svg">
<path d="M4.6084 16.3096H14.1885C16.8428 16.3096 18.9082 14.2881 18.9082 11.6953C18.9082 11.6602 18.9082 11.625 18.9082 11.5898C21.7383 11.5459 23.6807 9.9375 24.4102 7.97754C24.7266 7.16016 24.3223 6.43945 23.5312 6.43945C22.9248 6.43945 22.4502 6.69434 21.5098 6.69434C19.3828 6.69434 18.2842 5.52539 18.2842 3.50391C18.2842 2.4668 18.6094 1.86035 18.6094 1.36816C18.6094 0.55957 17.8887 0.164062 17.0537 0.445312C15.0322 1.12207 13.3975 3.22266 13.3975 5.69238C13.3975 5.78906 13.3975 5.87695 13.3975 5.96484C12.3164 4.70801 10.7959 3.99609 9.00293 3.99609C6.02344 3.99609 3.55371 6.22852 3.17578 9.18164C1.65527 9.66504 0.65332 10.9922 0.65332 12.6445C0.65332 14.7715 2.27051 16.3096 4.6084 16.3096ZM14.9443 5.6748C14.9443 4.08398 15.8496 2.76562 16.9746 2.10645L17.0801 2.16797C16.9395 2.59863 16.7988 3.19629 16.7988 3.88184C16.7988 6.39551 18.5918 8.1709 21.1582 8.1709C21.8086 8.1709 22.3447 8.04785 22.7314 7.9248L22.793 7.98633C22.2217 9.0498 20.7891 10.0693 18.6006 10.0166C18.0469 8.59277 16.79 7.54688 15.1992 7.21289C15.0234 6.72949 14.9443 6.21094 14.9443 5.6748ZM4.61719 14.5166C3.18457 14.5166 2.44629 13.7256 2.44629 12.6797C2.44629 11.7744 2.99121 11.0186 4.24805 10.6846C4.70508 10.5703 4.85449 10.3594 4.90723 9.89355C5.17969 7.39746 6.90234 5.78906 9.00293 5.78906C10.6289 5.78906 11.9121 6.69434 12.7471 8.31152C12.9492 8.69824 13.1689 8.83887 13.6436 8.83887C15.9287 8.83887 17.1152 10.1396 17.1152 11.7305C17.1152 13.2861 15.8848 14.5166 14.1797 14.5166H4.61719Z" fill="#1F2034"/>
</svg>
