<svg width="20" height="24" viewBox="0 0 20 24" fill="none" xmlns="http://www.w3.org/2000/svg">
<path d="M19.1667 3.66634H14.1667V2.41634C14.1667 1.86381 13.9472 1.3339 13.5565 0.943202C13.1658 0.552501 12.6359 0.333008 12.0833 0.333008H7.91667C7.36413 0.333008 6.83423 0.552501 6.44353 0.943202C6.05283 1.3339 5.83333 1.86381 5.83333 2.41634V3.66634H0.833333C0.61232 3.66634 0.400358 3.75414 0.244078 3.91042C0.0877975 4.0667 0 4.27866 0 4.49967C0 4.72069 0.0877975 4.93265 0.244078 5.08893C0.400358 5.24521 0.61232 5.33301 0.833333 5.33301H1.71875L2.70833 21.2143C2.78229 22.6127 3.85417 23.6663 5.20833 23.6663H14.7917C16.1526 23.6663 17.2031 22.6361 17.2917 21.2184L18.2812 5.33301H19.1667C19.3877 5.33301 19.5996 5.24521 19.7559 5.08893C19.9122 4.93265 20 4.72069 20 4.49967C20 4.27866 19.9122 4.0667 19.7559 3.91042C19.5996 3.75414 19.3877 3.66634 19.1667 3.66634ZM6.69635 20.333H6.66667C6.4507 20.3331 6.24312 20.2494 6.08766 20.0995C5.93221 19.9496 5.84103 19.7452 5.83333 19.5294L5.41667 7.8627C5.40879 7.64168 5.48904 7.42659 5.63975 7.26474C5.79046 7.1029 5.9993 7.00755 6.22031 6.99967C6.44133 6.9918 6.65642 7.07205 6.81826 7.22276C6.98011 7.37347 7.07546 7.58231 7.08333 7.80332L7.5 19.47C7.50397 19.5794 7.48632 19.6886 7.44807 19.7912C7.40982 19.8939 7.35171 19.9879 7.27707 20.0681C7.20244 20.1482 7.11273 20.2129 7.01308 20.2584C6.91344 20.3038 6.80581 20.3292 6.69635 20.333ZM10.8333 19.4997C10.8333 19.7207 10.7455 19.9326 10.5893 20.0889C10.433 20.2452 10.221 20.333 10 20.333C9.77899 20.333 9.56702 20.2452 9.41074 20.0889C9.25446 19.9326 9.16667 19.7207 9.16667 19.4997V7.83301C9.16667 7.61199 9.25446 7.40003 9.41074 7.24375C9.56702 7.08747 9.77899 6.99967 10 6.99967C10.221 6.99967 10.433 7.08747 10.5893 7.24375C10.7455 7.40003 10.8333 7.61199 10.8333 7.83301V19.4997ZM12.5 3.66634H7.5V2.41634C7.49937 2.36145 7.50972 2.30699 7.53044 2.25615C7.55115 2.20531 7.58182 2.15913 7.62064 2.12031C7.65946 2.0815 7.70564 2.05083 7.75647 2.03011C7.80731 2.00939 7.86177 1.99905 7.91667 1.99967H12.0833C12.1382 1.99905 12.1927 2.00939 12.2435 2.03011C12.2944 2.05083 12.3405 2.0815 12.3794 2.12031C12.4182 2.15913 12.4488 2.20531 12.4696 2.25615C12.4903 2.30699 12.5006 2.36145 12.5 2.41634V3.66634ZM14.1667 19.5294C14.159 19.7452 14.0678 19.9496 13.9123 20.0995C13.7569 20.2494 13.5493 20.3331 13.3333 20.333H13.3031C13.1937 20.3291 13.0861 20.3037 12.9866 20.2582C12.887 20.2127 12.7973 20.1481 12.7227 20.0679C12.6482 19.9878 12.5901 19.8937 12.5519 19.7911C12.5137 19.6885 12.496 19.5794 12.5 19.47L12.9167 7.80332C12.9206 7.69388 12.946 7.58629 12.9915 7.48668C13.0369 7.38706 13.1016 7.29738 13.1817 7.22276C13.2619 7.14813 13.3559 7.09002 13.4585 7.05175C13.5611 7.01347 13.6703 6.99578 13.7797 6.99967C13.8891 7.00357 13.9967 7.02899 14.0963 7.07447C14.1959 7.11995 14.2856 7.18461 14.3602 7.26474C14.4349 7.34488 14.493 7.43894 14.5313 7.54153C14.5695 7.64413 14.5872 7.75326 14.5833 7.8627L14.1667 19.5294Z" fill="#52C4D1"/>
</svg>
