<svg width="35" height="25" viewBox="0 0 35 25" fill="none" xmlns="http://www.w3.org/2000/svg">
<path d="M34.1419 12.675C33.7236 11.6546 32.6837 11.0411 31.5987 11.1756C30.995 11.244 30.3842 11.1768 29.8102 10.9787C28.1143 10.4397 26.9805 8.82736 27.0352 7.03253C27.0732 6.11772 27.431 5.24615 28.0454 4.57386C28.7679 3.7527 28.8808 2.55459 28.3246 1.61098C27.7542 0.628958 26.5919 0.171553 25.514 0.504088L25.003 0.651753C22.1841 1.50411 19.9594 3.70109 19.0525 6.52828C19.0525 6.68795 18.98 6.84763 18.9432 7.00729H18.942C17.6965 6.46586 16.356 6.18612 15 6.18373C12.8585 6.23055 10.7812 6.93285 9.04374 8.19701C7.30511 9.46116 5.98711 11.2283 5.26455 13.2656H4.77729C3.43556 13.3976 2.2032 14.0687 1.35466 15.1264C0.506124 16.1852 0.11278 17.5418 0.262524 18.8949C0.275596 20.2851 0.825843 21.6141 1.79796 22.5973C2.76889 23.5806 4.08327 24.1412 5.4582 24.1568H25.8181C27.0172 24.1472 28.164 23.6634 29.0126 22.8074C29.8623 21.9527 30.3448 20.7954 30.3579 19.5841C30.403 18.811 30.2747 18.0379 29.9799 17.3223C31.2563 16.979 32.4411 16.3535 33.4476 15.4903C34.2617 14.8048 34.5424 13.6655 34.1419 12.675ZM25.8184 21.698H5.47156C3.90287 21.6584 2.66214 20.3439 2.69661 18.7604C2.58965 18.0437 2.77505 17.3149 3.21119 16.7399C3.64734 16.1648 4.29621 15.7939 5.00927 15.711C5.24339 15.699 5.47989 15.699 5.71519 15.711H6.04318C6.60531 15.7326 7.10919 15.3617 7.26012 14.8142C7.71765 13.0831 8.71712 11.5488 10.1111 10.4409C11.5039 9.33278 13.2152 8.71092 14.9871 8.6677C17.0062 8.72533 18.9339 9.52729 20.4073 10.9223C21.8797 12.3173 22.796 14.2092 22.9826 16.2407C23.0218 16.5888 23.2072 16.9034 23.49 17.1051C23.7741 17.3067 24.1294 17.3764 24.4669 17.2971C25.0254 17.1651 25.6007 17.1279 26.1711 17.1867C26.7106 17.2539 27.2003 17.5384 27.5283 17.9766C27.8562 18.4136 27.9941 18.9671 27.9109 19.5097C27.9062 20.6874 26.983 21.6524 25.8184 21.698ZM28.0086 15.1337C27.5214 14.884 26.9937 14.7255 26.4506 14.6667C26.0466 14.6331 25.6389 14.6331 25.2337 14.6667C24.6644 12.1456 23.2443 9.90303 21.2181 8.32303C21.249 7.94845 21.3144 7.5787 21.413 7.21614C22.0773 5.20765 23.665 3.64953 25.6723 3.03702C25.8529 2.97579 26.0431 2.95058 26.232 2.96258C25.248 4.04544 24.6716 5.44166 24.6015 6.90874C24.5611 8.32297 24.9794 9.71197 25.7923 10.8632C26.6052 12.0145 27.7674 12.8669 29.1045 13.2895C30.0136 13.5932 30.975 13.7012 31.927 13.6088C30.8253 14.5416 29.4467 15.0785 28.0086 15.1337Z" fill="#52C4D1"/>
</svg>
