<svg width="15" height="9" viewBox="0 0 15 9" fill="none" xmlns="http://www.w3.org/2000/svg">
<path d="M7.5 8.43115C7.70752 8.43115 7.91504 8.34814 8.05615 8.19043L14.481 1.60791C14.6221 1.4668 14.7051 1.28418 14.7051 1.07666C14.7051 0.64502 14.3813 0.312988 13.9497 0.312988C13.7422 0.312988 13.5513 0.395996 13.4102 0.528809L7.5 6.57178L1.58154 0.528809C1.44873 0.395996 1.25781 0.312988 1.04199 0.312988C0.610352 0.312988 0.286621 0.64502 0.286621 1.07666C0.286621 1.28418 0.369629 1.4668 0.510742 1.61621L6.93555 8.19043C7.09326 8.34814 7.28418 8.43115 7.5 8.43115Z" fill="#52C4D1"/>
</svg>

