<svg width="55" height="55" viewBox="-1 -1.5 55 55" fill="none" xmlns="http://www.w3.org/2000/svg">
<path d="M21.9276 25.4319C21.7992 25.5604 21.7164 25.7273 21.6916 25.9072L21.046 30.5442C21.0282 30.6723 21.0405 30.8027 21.0819 30.9253C21.1233 31.0478 21.1926 31.159 21.2844 31.2501C21.3761 31.3412 21.4879 31.4097 21.6107 31.4502C21.7335 31.4907 21.8641 31.502 21.992 31.4833L26.5991 30.8077C26.7765 30.7815 26.9408 30.6988 27.0675 30.5718L37.6614 19.9778C38.3278 19.3114 38.3278 18.2066 37.6614 17.5403L34.9603 14.8391C34.2939 14.1727 33.1879 14.1716 32.5215 14.8379L21.9276 25.4319Z" fill="#52C4D1"/>
<path d="M17.3333 14.3333C15.9627 14.3333 14.8333 15.4627 14.8333 16.8333V35.1666C14.8333 36.5372 15.9627 37.6666 17.3333 37.6666H35.6666C37.0372 37.6666 38.1666 36.5372 38.1666 35.1666V25.9788C38.1666 25.7578 38.0788 25.5458 37.9225 25.3896C37.7662 25.2333 37.5543 25.1455 37.3333 25.1455C37.1122 25.1455 36.9003 25.2333 36.744 25.3896C36.5877 25.5458 36.4999 25.7578 36.4999 25.9788V35.1666C36.4999 35.6427 36.1427 36 35.6666 36H17.3333C16.8572 36 16.4999 35.6427 16.4999 35.1666V16.8333C16.4999 16.3572 16.8572 16 17.3333 16H26.4999C26.7209 16 26.9329 15.9122 27.0892 15.7559C27.2455 15.5996 27.3333 15.3877 27.3333 15.1666C27.3333 14.9456 27.2455 14.7337 27.0892 14.5774C26.9329 14.4211 26.7209 14.3333 26.4999 14.3333H17.3333Z" fill="#52C4D1"/>
<path d="M26.5 51C12.6929 51 1.5 39.8071 1.5 26H-0.5C-0.5 40.9117 11.5883 53 26.5 53V51ZM51.5 26C51.5 39.8071 40.3071 51 26.5 51V53C41.4117 53 53.5 40.9117 53.5 26H51.5ZM26.5 1C40.3071 1 51.5 12.1929 51.5 26H53.5C53.5 11.0883 41.4117 -1 26.5 -1V1ZM26.5 -1C11.5883 -1 -0.5 11.0883 -0.5 26H1.5C1.5 12.1929 12.6929 1 26.5 1V-1Z" fill="#52C4D1"/>
</svg>
