<svg width="19" height="16" viewBox="0 0 19 16" fill="none" xmlns="http://www.w3.org/2000/svg">
<path d="M2.94238 15.1704H16.3066C17.8008 15.1704 18.6641 14.3071 18.6641 12.5972V3.43311C18.6641 1.73145 17.7925 0.868164 16.0576 0.868164H2.69336C1.19922 0.868164 0.335938 1.72314 0.335938 3.43311V12.5972C0.335938 14.3154 1.20752 15.1704 2.94238 15.1704ZM8.51221 8.43848L2.24512 2.25439C2.42773 2.17969 2.64355 2.13818 2.89258 2.13818H16.1074C16.3647 2.13818 16.5889 2.17969 16.7715 2.2627L10.521 8.43848C10.1641 8.79541 9.84033 8.95312 9.5166 8.95312C9.18457 8.95312 8.86084 8.78711 8.51221 8.43848ZM1.60596 12.5972V3.43311C1.60596 3.3667 1.60596 3.3999 1.60596 3.3418L6.37891 8.03174L1.61426 12.7383C1.60596 12.6968 1.60596 12.647 1.60596 12.5972ZM17.394 3.44141V12.6055C17.394 12.6387 17.394 12.6802 17.394 12.7134L12.6543 8.03174L17.394 3.3667C17.394 3.44141 17.394 3.44141 17.394 3.44141ZM2.89258 13.9004C2.66016 13.9004 2.46094 13.8672 2.28662 13.7925L7.25049 8.88672L7.79004 9.41797C8.37109 9.99072 8.92725 10.2314 9.5166 10.2314C10.0977 10.2314 10.6621 9.99072 11.2432 9.41797L11.7827 8.88672L16.7383 13.7842C16.5557 13.8672 16.3481 13.9004 16.1074 13.9004H2.89258Z" fill="#1F2034"/>
</svg>
