<svg width="28" height="28" viewBox="0 0 28 28" fill="none" xmlns="http://www.w3.org/2000/svg">
<g clip-path="url(#clip0_507_115)">
<path d="M21.2396 28.0995H17.7396C17.2562 28.0995 16.8646 27.7079 16.8646 27.2245V22.8495H13.3646V27.2245C13.3646 27.7079 12.9731 28.0995 12.4896 28.0995H8.98963C7.54259 28.0995 6.36463 26.9215 6.36463 25.4745V16.7245H3.75276C2.98495 16.7245 2.33308 16.2541 2.09245 15.5257C1.85073 14.7973 2.09245 14.0306 2.70713 13.5723L13.9606 3.43656C14.6366 2.85687 15.5947 2.85687 16.2542 3.42234L27.5603 13.5998C28.1488 14.0613 28.3763 14.8116 28.1389 15.5259C27.8972 16.2543 27.2453 16.7246 26.4786 16.7246H23.8667V25.4746C23.8667 26.9217 22.6888 28.0996 21.2417 28.0996L21.2396 28.0995ZM3.74411 14.9809L7.23963 14.9743C7.72308 14.9743 8.11463 15.3659 8.11463 15.8493V25.4743C8.11463 25.9567 8.50619 26.3493 8.98963 26.3493H11.6146V22.8493C11.6146 21.8847 12.3999 21.0993 13.3646 21.0993H16.8646C17.8293 21.0993 18.6146 21.8847 18.6146 22.8493V26.3493H21.2396C21.7231 26.3493 22.1146 25.9567 22.1146 25.4743V15.8493C22.1146 15.3659 22.5062 14.9743 22.9896 14.9743H26.4765C26.4557 14.9579 26.4338 14.9415 26.4141 14.9229L15.0982 4.73793L3.74411 14.9809Z" fill="white"/>
</g>
<defs>
<clipPath id="clip0_507_115">
<rect width="28" height="28" fill="white"/>
</clipPath>
</defs>
</svg>
