<svg width="25" height="23" viewBox="0 0 25 23" fill="none" xmlns="http://www.w3.org/2000/svg">
<path d="M0.628906 7.74609C0.628906 12.75 4.83594 17.6953 11.375 21.9141C11.7383 22.1484 12.1836 22.3828 12.4883 22.3828C12.793 22.3828 13.2383 22.1484 13.6016 21.9141C20.1523 17.6953 24.3477 12.75 24.3477 7.74609C24.3477 3.42188 21.3594 0.421875 17.5273 0.421875C15.2891 0.421875 13.543 1.44141 12.4883 2.98828C11.457 1.45312 9.69922 0.421875 7.46094 0.421875C3.61719 0.421875 0.628906 3.42188 0.628906 7.74609ZM3.04297 7.73438C3.04297 4.78125 4.98828 2.77734 7.60156 2.77734C9.71094 2.77734 10.8945 4.05469 11.6328 5.16797C11.9609 5.64844 12.1836 5.80078 12.4883 5.80078C12.8047 5.80078 13.0039 5.63672 13.3438 5.16797C14.1406 4.07812 15.2773 2.77734 17.375 2.77734C20 2.77734 21.9453 4.78125 21.9453 7.73438C21.9453 11.8594 17.6562 16.4297 12.7109 19.7109C12.6055 19.7812 12.5352 19.8281 12.4883 19.8281C12.4414 19.8281 12.3711 19.7812 12.2773 19.7109C7.33203 16.4297 3.04297 11.8594 3.04297 7.73438Z" fill="#52C4D1"/>
</svg>
