<svg viewBox="0 0 24 14" fill="none" xmlns="http://www.w3.org/2000/svg">
<path fill-rule="evenodd" clip-rule="evenodd" d="M0.917464 0.583008H23.0829C23.4002 0.583008 23.6668 0.849602 23.6668 1.16698V12.8336C23.6668 13.151 23.4002 13.4176 23.0829 13.4176H0.917464C0.60009 13.4176 0.333496 13.151 0.333496 12.8336V1.16698C0.333496 0.849602 0.60009 0.583008 0.917464 0.583008V0.583008ZM5.08141 9.32983V11.0817H2.45355V9.32983H5.08141ZM21.331 9.32983V11.0817H18.7031V9.32983H21.331ZM17.0274 9.32983V11.0817C13.6124 11.0817 10.1848 11.0817 6.75714 11.0817V9.32983C10.1848 9.32983 13.6124 9.32983 17.0274 9.32983ZM16.1641 6.1307H17.9033V7.86991H16.1641V6.1307ZM19.5791 6.1307H21.331V7.86991H19.5791V6.1307ZM12.7365 6.1307H14.4884V7.86991H12.7365V6.1307ZM9.30883 6.1307H11.0607V7.86991H9.30883V6.1307ZM5.88119 6.1307H7.6331V7.86991H5.88119V6.1307ZM19.5791 2.91888H21.331V4.67078H19.5791V2.91888ZM16.1641 2.91888H17.9033V4.67078H16.1641V2.91888ZM12.7365 2.91888H14.4884V4.67078H12.7365V2.91888V2.91888ZM9.30883 2.91888H11.0607V4.67078H9.30883V2.91888ZM5.88119 2.91888H7.6331V4.67078H5.88119V2.91888ZM2.45355 6.1307H4.20546V7.86991H2.45355V6.1307ZM2.45355 2.91888H4.20546V4.67078H2.45355V2.91888Z" fill="#52C4D1"/>
</svg>
