<svg width="15" height="16" viewBox="0 0 15 16" fill="none" xmlns="http://www.w3.org/2000/svg">
<path fill-rule="evenodd" clip-rule="evenodd" d="M12.5 4.35391V6.53087H14.3752C14.7204 6.53087 15 6.77494 15 7.07556V14.6953C15 14.9959 14.7204 15.2394 14.3752 15.2394H0.624829C0.279592 15.2394 0 14.9959 0 14.6953V7.07556C0 6.77493 0.27961 6.53087 0.624829 6.53087H2.50004V4.35391C2.50004 1.94958 4.73821 0 7.5 0C10.2618 0 12.5 1.94958 12.5 4.35391ZM9.99998 6.53087V4.35391C9.99998 3.15202 8.8809 2.17696 7.5 2.17696C6.1191 2.17696 5.00002 3.15204 5.00002 4.35391V6.53087H9.99998Z" fill="#F2D479"/>
</svg>