<svg width="55" height="55" viewBox="-1 -1.5 55 55" fill="none" xmlns="http://www.w3.org/2000/svg">
    <path d="M26.5 51C12.6929 51 1.5 39.8071 1.5 26H-0.5C-0.5 40.9117 11.5883 53 26.5 53V51ZM51.5 26C51.5 39.8071 40.3071 51 26.5 51V53C41.4117 53 53.5 40.9117 53.5 26H51.5ZM26.5 1C40.3071 1 51.5 12.1929 51.5 26H53.5C53.5 11.0883 41.4117 -1 26.5 -1V1ZM26.5 -1C11.5883 -1 -0.5 11.0883 -0.5 26H1.5C1.5 12.1929 12.6929 1 26.5 1V-1Z" fill="#52C4D1"/>
    <rect x="14" y="19" width="24" height="2.64706" rx="1.32353" fill="#52C4D1"/>
    <rect x="14" y="25.1768" width="24" height="2.64706" rx="1.32353" fill="#52C4D1"/>
    <rect x="14" y="31.3525" width="24" height="2.64706" rx="1.32353" fill="#52C4D1"/>
</svg>
