<svg width="48" height="48" viewBox="0 0 48 48" fill="none" xmlns="http://www.w3.org/2000/svg">
<path d="M24.0002 32.3544C28.4559 32.3544 32.1015 28.7089 32.1015 24.2532V12.1013C32.1015 7.64557 28.4559 4 24.0002 4C19.5445 4 15.8989 7.64557 15.8989 12.1013V24.2532C15.8989 28.7089 19.5445 32.3544 24.0002 32.3544ZM17.9242 12.1013C17.9242 8.75949 20.6584 6.02532 24.0002 6.02532C27.342 6.02532 30.0761 8.75949 30.0761 12.1013V24.2532C30.0761 27.5949 27.342 30.3291 24.0002 30.3291C20.6584 30.3291 17.9242 27.5949 17.9242 24.2532V12.1013Z" fill="white"/>
<path d="M37.1646 24.2527V20.2021C37.1646 19.6451 36.7089 19.1895 36.1519 19.1895C35.5949 19.1895 35.1393 19.6451 35.1393 20.2021V24.2527C35.1393 30.3793 30.1266 35.392 24 35.392C17.8734 35.392 12.8608 30.3793 12.8608 24.2527V20.2021C12.8608 19.6451 12.4051 19.1895 11.8481 19.1895C11.2911 19.1895 10.8354 19.6451 10.8354 20.2021V24.2527C10.8354 31.1895 16.2025 36.8603 22.9874 37.3667V41.9743H17.9241C17.3671 41.9743 16.9114 42.43 16.9114 42.9869C16.9114 43.5439 17.3671 43.9996 17.9241 43.9996H30.076C30.6329 43.9996 31.0886 43.5439 31.0886 42.9869C31.0886 42.43 30.6329 41.9743 30.076 41.9743H25.0127V37.3667C31.7975 36.8603 37.1646 31.1895 37.1646 24.2527Z" fill="white"/>
<path d="M32.1016 24.2532C32.1016 28.7087 28.4561 32.3545 24 32.3545C19.5444 32.3545 15.8989 28.7087 15.8989 24.2532V12.1013C15.8989 7.64551 19.5444 4 24 4C28.4561 4 32.1016 7.64551 32.1016 12.1013V24.2532Z" fill="white"/>
</svg>
