<svg width="18" height="18" viewBox="0 0 18 18" fill="none" xmlns="http://www.w3.org/2000/svg">
<path d="M9 17.4736C13.6318 17.4736 17.4668 13.6304 17.4668 9.00684C17.4668 4.375 13.6235 0.540039 8.9917 0.540039C4.36816 0.540039 0.533203 4.375 0.533203 9.00684C0.533203 13.6304 4.37646 17.4736 9 17.4736ZM9 16.0625C5.08203 16.0625 1.95264 12.9248 1.95264 9.00684C1.95264 5.08887 5.07373 1.95117 8.9917 1.95117C12.9097 1.95117 16.0474 5.08887 16.0557 9.00684C16.064 12.9248 12.918 16.0625 9 16.0625ZM5.99512 12.1777C5.99512 12.8003 6.26904 13.0908 6.8418 13.0908H11.1416C11.7144 13.0908 11.9883 12.8003 11.9883 12.1777V8.87402C11.9883 8.29297 11.7476 8.00244 11.2578 7.96924V6.98975C11.2578 5.4624 10.3447 4.44141 8.9917 4.44141C7.63867 4.44141 6.72559 5.4624 6.72559 6.98975V7.96924C6.23584 8.00244 5.99512 8.29297 5.99512 8.87402V12.1777ZM7.58887 7.96094V6.89844C7.58887 5.92725 8.15332 5.27979 8.9917 5.27979C9.83008 5.27979 10.3945 5.92725 10.3945 6.89844V7.96094H7.58887Z" fill="#1F2034"/>
</svg>
