<svg width="14" height="14" viewBox="0 0 27 27" fill="none" xmlns="http://www.w3.org/2000/svg">
<path d="M13.0544 0C5.85603 0 0 5.85603 0 13.0556C0 20.254 5.85603 26.11 13.0544 26.11C20.254 26.11 26.11 20.254 26.11 13.0556C26.11 5.85603 20.254 0 13.0544 0ZM21.6722 19.5476C20.5408 18.401 17.8223 17.1548 13.0568 17.1548C8.29096 17.1548 5.57028 18.4009 4.43782 19.5476C3.071 17.7369 2.2488 15.4929 2.2488 13.0556C2.2488 7.09763 7.09649 2.24874 13.0545 2.24874C19.0124 2.24874 23.8601 7.09643 23.8601 13.0544C23.8601 15.4929 23.0403 17.7369 21.6723 19.5476H21.6722Z" fill="white"/>
<path d="M18.2275 10.3105C18.2275 13.1671 15.9108 15.4838 13.0542 15.4838C10.1975 15.4838 7.88086 13.1671 7.88086 10.3105C7.88086 7.45275 10.1975 5.13721 13.0542 5.13721C15.9108 5.13721 18.2275 7.45272 18.2275 10.3105Z" fill="white"/>
</svg>
