<svg width="25" height="26" viewBox="0 0 25 26" fill="none" xmlns="http://www.w3.org/2000/svg">
<path d="M12.4883 25.1562C19.1328 25.1562 24.6172 19.6719 24.6172 13.0391C24.6172 6.40625 19.1211 0.921875 12.4766 0.921875C5.84375 0.921875 0.371094 6.40625 0.371094 13.0391C0.371094 19.6719 5.85547 25.1562 12.4883 25.1562ZM12.4883 17.0938C9.18359 17.0938 6.61719 18.2773 5.375 19.6367C3.78125 17.9141 2.80859 15.5938 2.80859 13.0391C2.80859 7.66016 7.10938 3.34766 12.4766 3.34766C17.8555 3.34766 22.1797 7.66016 22.1914 13.0391C22.1914 15.5938 21.2188 17.9141 19.6133 19.6484C18.3711 18.2773 15.8047 17.0938 12.4883 17.0938ZM12.4883 15.1719C14.7617 15.1953 16.5312 13.25 16.5312 10.7422C16.5312 8.375 14.75 6.39453 12.4883 6.39453C10.2383 6.39453 8.44531 8.375 8.45703 10.7422C8.46875 13.25 10.2266 15.1602 12.4883 15.1719Z" fill="white"/>
</svg>
