<svg width="29" height="28" viewBox="0 0 29 28" fill="none" xmlns="http://www.w3.org/2000/svg">
<path id="SF Symbol / scribble.variable" d="M7.60938 20.4395H17.1982C19.8613 20.4395 21.9355 18.4092 21.9355 15.7988C21.9355 15.7637 21.9355 15.7285 21.9355 15.6934C24.7744 15.6494 26.7344 14.0322 27.4639 12.0459C27.7803 11.2197 27.376 10.499 26.5762 10.499C25.9697 10.499 25.4863 10.7627 24.5371 10.7627C22.4277 10.7627 21.3379 9.60254 21.3379 7.57227C21.3379 6.53516 21.6631 5.91992 21.6631 5.42773C21.6631 4.61914 20.9424 4.21484 20.1074 4.50488C18.0684 5.18164 16.416 7.29102 16.416 9.76953C16.416 9.86621 16.416 9.96289 16.416 10.0596C15.335 8.79395 13.8057 8.08203 12.0039 8.08203C9.01562 8.08203 6.53711 10.3057 6.15918 13.2676C4.62988 13.751 3.62793 15.0781 3.62793 16.748C3.62793 18.8926 5.25391 20.4395 7.60938 20.4395ZM17.9805 9.74316C17.9805 8.15234 18.8857 6.85156 20.0107 6.18359L20.1162 6.25391C19.9756 6.67578 19.835 7.27344 19.835 7.96777C19.835 10.4814 21.6191 12.2568 24.1855 12.2568C24.8359 12.2568 25.3721 12.1338 25.7588 12.002L25.8291 12.0723C25.249 13.1357 23.8076 14.1553 21.6104 14.0938C21.0566 12.6787 19.8174 11.6416 18.2441 11.2988C18.0684 10.8154 17.9805 10.2881 17.9805 9.74316ZM7.61816 18.6113C6.19434 18.6113 5.45605 17.8203 5.45605 16.7832C5.45605 15.8779 6.00098 15.1221 7.25781 14.7969C7.71484 14.6738 7.86426 14.4717 7.91699 13.9971C8.19824 11.4922 9.90332 9.90137 12.0039 9.90137C13.6211 9.90137 14.9043 10.8154 15.7393 12.4238C15.9414 12.8105 16.1699 12.9512 16.6445 12.9512C18.9209 12.9512 20.1074 14.252 20.1074 15.8428C20.1074 17.3896 18.8857 18.6113 17.1807 18.6113H7.61816Z" fill="#52C4D1"/>
</svg>
