<svg width="39" height="24" viewBox="0 0 39 24" fill="none" xmlns="http://www.w3.org/2000/svg">
<path fill-rule="evenodd" clip-rule="evenodd" d="M30.0167 4.80106C29.6207 4.80203 29.2252 4.83113 28.8332 4.88814C27.7275 3.37364 26.2797 2.14155 24.6077 1.29213C22.9357 0.442722 21.0866 0 19.2111 0C17.3356 0 15.4866 0.442722 13.8145 1.29213C12.1425 2.14155 10.6947 3.37364 9.58903 4.88814C8.3199 4.70719 7.02619 4.81895 5.80693 5.21486C4.58766 5.61077 3.47518 6.28033 2.55464 7.17228C1.6341 8.06423 0.929913 9.15492 0.495989 10.3609C0.0620655 11.5668 -0.0900908 12.856 0.0511687 14.1298C0.192428 15.4036 0.623358 16.6282 1.31097 17.7098C1.99858 18.7915 2.92464 19.7015 4.01825 20.3702C5.11186 21.0389 6.34404 21.4486 7.62044 21.5679C8.89684 21.6872 10.1836 21.513 11.3823 21.0585C13.5455 22.9604 16.3277 24.0095 19.2086 24.0095C22.0894 24.0095 24.8716 22.9604 27.0348 21.0585C27.9868 21.4223 28.9976 21.6081 30.0167 21.6066C31.138 21.6343 32.2535 21.4374 33.2974 21.0275C34.3414 20.6177 35.2928 20.0032 36.0957 19.2202C36.8985 18.4372 37.5365 17.5015 37.9721 16.4683C38.4077 15.435 38.6321 14.3251 38.6321 13.2038C38.6321 12.0826 38.4077 10.9726 37.9721 9.93938C37.5365 8.90613 36.8985 7.97046 36.0957 7.18746C35.2928 6.40445 34.3414 5.78994 33.2974 5.3801C32.2535 4.97026 31.138 4.77338 30.0167 4.80106ZM30.0167 19.2094C28.7811 19.2074 27.5765 18.8226 26.5686 18.1082C25.6793 19.2012 24.5575 20.0824 23.2848 20.6876C22.0121 21.2928 20.6205 21.6068 19.2111 21.6068C17.8018 21.6068 16.4101 21.2928 15.1374 20.6876C13.8647 20.0824 12.7429 19.2012 11.8537 18.1082C11.0822 18.6503 10.1938 19.003 9.26058 19.1377C8.32731 19.2723 7.37542 19.1852 6.48213 18.8834C5.58884 18.5815 4.7793 18.0734 4.11917 17.4003C3.45904 16.7271 2.96692 15.9079 2.6827 15.0091C2.39849 14.1103 2.3302 13.1571 2.48336 12.227C2.63653 11.2968 3.00684 10.4159 3.56427 9.65556C4.12169 8.89524 4.85053 8.27698 5.69166 7.85091C6.53279 7.42485 7.46254 7.20299 8.40548 7.20331C9.18816 7.20304 9.96311 7.35799 10.6855 7.65918C11.4784 6.07859 12.6956 4.74966 14.2007 3.82098C15.7059 2.89229 17.4398 2.40045 19.2086 2.40045C20.9773 2.40045 22.7112 2.89229 24.2164 3.82098C25.7215 4.74966 26.9387 6.07859 27.7316 7.65918C28.5524 7.31977 29.4382 7.16661 30.3253 7.21074C31.2125 7.25487 32.0787 7.49519 32.8617 7.91437C33.6447 8.33356 34.325 8.92118 34.8534 9.63487C35.3818 10.3486 35.7453 11.1706 35.9176 12.0416C36.09 12.9127 36.0669 13.8112 35.85 14.6722C35.6331 15.5333 35.2278 16.3355 34.6634 17.0211C34.099 17.7067 33.3895 18.2586 32.5859 18.637C31.7824 19.0155 30.9049 19.2109 30.0167 19.2094Z" fill="#1F4074"/>
<path d="M18.4583 15.7917C20.8516 15.7917 22.7917 13.8516 22.7917 11.4583C22.7917 9.0651 20.8516 7.125 18.4583 7.125C16.0651 7.125 14.125 9.0651 14.125 11.4583C14.125 13.8516 16.0651 15.7917 18.4583 15.7917Z" stroke="#1F4074" stroke-width="1.08333" stroke-linecap="round" stroke-linejoin="round"/>
<path d="M23.8758 16.8763L21.5195 14.52" stroke="#1F4074" stroke-width="1.08333" stroke-linecap="round" stroke-linejoin="round"/>
</svg>
