<svg viewBox="0 0 69 69" fill="none" xmlns="http://www.w3.org/2000/svg">
<g clip-path="url(#clip0_369_64)">
<path d="M36.899 34.2027L24.9493 31.5462C24.4589 31.437 24.0059 31.2005 23.6359 30.8606C23.266 30.5206 22.9922 30.0891 22.8421 29.6097L19.8754 20.126C19.7141 19.6107 19.706 19.0597 19.8519 18.5399C19.9979 18.0202 20.2917 17.554 20.6977 17.198C21.1036 16.8421 21.6042 16.6117 22.1386 16.5349C22.673 16.4581 23.2182 16.5382 23.708 16.7655L56.9799 32.1787C57.462 32.4024 57.8701 32.7593 58.1561 33.2073C58.4421 33.6552 58.5941 34.1756 58.5941 34.7071C58.594 35.2386 58.4421 35.759 58.156 36.207C57.87 36.6549 57.4619 37.0118 56.9798 37.2354L23.7073 52.6502C23.2172 52.877 22.6717 52.9566 22.1372 52.8793C21.6027 52.8021 21.1022 52.5713 20.6963 52.215C20.2904 51.8587 19.9967 51.3923 19.8509 50.8723C19.7051 50.3523 19.7133 49.8011 19.8747 49.2857L22.8371 39.8204C22.9883 39.3372 23.2652 38.9028 23.6395 38.5618C24.0137 38.2207 24.4719 37.9853 24.967 37.8795L36.8942 35.3297C37.023 35.3023 37.1384 35.2316 37.2214 35.1294C37.3044 35.0272 37.35 34.8998 37.3506 34.7681C37.3511 34.6365 37.3066 34.5086 37.2245 34.4058C37.1423 34.3029 37.0275 34.2313 36.899 34.2027V34.2027Z" fill="white"/>
</g>
<defs>
<clipPath id="clip0_369_64">
<rect width="48" height="48" fill="white" transform="translate(34.2925 0.765625) rotate(45)"/>
</clipPath>
</defs>
</svg>
