<svg width="21" height="20" viewBox="0 0 21 20" fill="none" xmlns="http://www.w3.org/2000/svg">
<path d="M0.505859 9.89893C0.505859 11.9907 1.53516 13.2524 3.46094 13.5347L5.32861 17.6602C5.81836 18.7642 6.52393 19.3037 7.55322 19.3037C8.91455 19.3037 9.89404 18.3159 9.60352 16.8052L9.03906 13.875C11.3633 14.3398 13.7041 15.1948 15.8955 16.4482C16.2358 17.3281 17.0576 17.8926 18.1035 17.8926C19.4897 17.8926 20.4858 16.8965 20.4858 15.5103V3.00098C20.4858 1.61475 19.4897 0.618652 18.1035 0.618652C17.0327 0.618652 16.186 1.22461 15.8623 2.1377C13.2725 3.66504 9.97705 4.69434 7.3457 4.97656H4.33252C1.85059 4.97656 0.505859 6.28809 0.505859 8.67041V9.89893ZM17.4478 15.5103V3.00098C17.4478 2.61084 17.7217 2.34521 18.1035 2.34521C18.4937 2.34521 18.7676 2.61084 18.7676 3.00098V15.5103C18.7676 15.9004 18.4937 16.166 18.1035 16.166C17.7217 16.166 17.4478 15.9004 17.4478 15.5103ZM7.67773 11.916V6.64502C10.5581 6.29639 13.2891 5.46631 15.7212 4.12158V14.4561C13.2476 13.0781 10.5415 12.2729 7.67773 11.916ZM4.33252 11.8662C2.82178 11.8662 2.23242 11.3184 2.23242 9.89893V8.67041C2.23242 7.25928 2.82178 6.70312 4.33252 6.70312H5.95117V11.8662H4.33252ZM6.94727 17.1787L5.25391 13.5928H7.2959C7.3125 13.5928 7.3291 13.6011 7.3457 13.6011L8.01807 17.021C8.10107 17.4194 7.87695 17.6685 7.54492 17.6685C7.24609 17.6685 7.09668 17.5107 6.94727 17.1787Z" fill="#52C4D1"/>
</svg>
