<svg width="25" height="24" viewBox="0 0 25 24" fill="none" xmlns="http://www.w3.org/2000/svg">
<path d="M18.9453 15.9297C12.7461 15.9297 8.80859 12.0859 8.80859 5.92188C8.80859 4.57422 9.125 2.78125 9.54688 1.83203C9.6875 1.52734 9.72266 1.31641 9.72266 1.15234C9.72266 0.777344 9.45312 0.414062 8.97266 0.414062C8.79688 0.414062 8.51562 0.460938 8.22266 0.566406C3.86328 2.3125 0.957031 6.91797 0.957031 11.8047C0.957031 18.6836 6.16016 23.6172 13.0156 23.6172C17.9844 23.6172 22.332 20.6172 23.8672 16.7031C23.9961 16.3984 24.0312 16.0938 24.0312 15.9297C24.0312 15.4727 23.6797 15.168 23.3047 15.168C23.1055 15.168 22.918 15.2148 22.6484 15.332C21.7695 15.6367 20.3516 15.9297 18.9453 15.9297Z" fill="white"/>
</svg>
