<svg width="25" height="24" viewBox="0 0 25 24" fill="none" xmlns="http://www.w3.org/2000/svg">
<path d="M18.9805 15.7656C12.7812 15.7656 8.92578 12.0508 8.92578 6.03906C8.92578 4.35156 9.20703 2.82812 9.64062 1.99609C9.83984 1.60938 9.89844 1.375 9.89844 1.08203C9.89844 0.589844 9.48828 0.0742188 8.87891 0.0742188C8.72656 0.0742188 8.45703 0.121094 8.08203 0.261719C3.6875 2.05469 0.628906 6.63672 0.628906 11.5938C0.628906 18.7188 5.82031 23.9219 12.9453 23.9219C18.0312 23.9219 22.2266 21.2031 24.1484 16.7969C24.3125 16.4336 24.3594 16.1289 24.3594 15.9414C24.3594 15.3438 23.9023 14.9688 23.4219 14.9688C23.1758 14.9688 22.9531 15.0039 22.6133 15.1562C21.7109 15.5312 20.3281 15.7656 18.9805 15.7656ZM2.92578 11.5234C2.92578 8.21875 4.57812 5.01953 7.27344 3.20312C6.95703 4.14062 6.79297 5.18359 6.79297 6.32031C6.79297 13.5273 11.2227 17.8633 18.5938 17.8633C19.5781 17.8633 20.4336 17.7461 21.2422 17.4648C19.5312 20.0664 16.4023 21.6367 13.0156 21.6367C7.17969 21.6367 2.92578 17.3711 2.92578 11.5234Z" fill="#52C4D1"/>
</svg>
